<svg width="24" height="17" viewBox="0 0 24 17" fill="none" xmlns="http://www.w3.org/2000/svg">
<path d="M22.2311 2.94141C22.1113 2.46262 21.8672 2.02393 21.5236 1.66966C21.1799 1.31539 20.7489 1.05808 20.274 0.923715C18.5387 0.5 11.5979 0.5 11.5979 0.5C11.5979 0.5 4.65702 0.5 2.92181 0.964069C2.44689 1.09843 2.01584 1.35574 1.6722 1.71002C1.32855 2.06429 1.08449 2.50297 0.964646 2.98176C0.647076 4.74276 0.491735 6.52918 0.500577 8.31855C0.489257 10.1214 0.644607 11.9214 0.964646 13.6957C1.09676 14.1596 1.3463 14.5816 1.68914 14.9209C2.03199 15.2602 2.45655 15.5054 2.92181 15.6327C4.65702 16.0968 11.5979 16.0968 11.5979 16.0968C11.5979 16.0968 18.5387 16.0968 20.274 15.6327C20.7489 15.4983 21.1799 15.241 21.5236 14.8867C21.8672 14.5325 22.1113 14.0938 22.2311 13.615C22.5462 11.8673 22.7016 10.0945 22.6952 8.31855C22.7065 6.5157 22.5512 4.71566 22.2311 2.94141Z" stroke="white" stroke-linecap="round" stroke-linejoin="round"/>
<path d="M9.32812 11.6173L15.129 8.31837L9.32812 5.01944V11.6173Z" stroke="white" stroke-linecap="round" stroke-linejoin="round"/>
</svg>
