<svg width="21" height="20" viewBox="0 0 21 20" fill="none" xmlns="http://www.w3.org/2000/svg">
<path d="M14.0816 6.32055C15.6254 6.32055 17.1059 6.9338 18.1976 8.0254C19.2892 9.117 19.9025 10.5975 19.9025 12.1413V18.9322H16.0219V12.1413C16.0219 11.6267 15.8175 11.1332 15.4536 10.7693C15.0897 10.4055 14.5962 10.201 14.0816 10.201C13.567 10.201 13.0735 10.4055 12.7096 10.7693C12.3457 11.1332 12.1413 11.6267 12.1413 12.1413V18.9322H8.26074V12.1413C8.26074 10.5975 8.87401 9.117 9.96563 8.0254C11.0573 6.9338 12.5378 6.32055 14.0816 6.32055Z" stroke="white" stroke-linecap="round" stroke-linejoin="round"/>
<path d="M4.38057 7.29098H0.5V18.9325H4.38057V7.29098Z" stroke="white" stroke-linecap="round" stroke-linejoin="round"/>
<path d="M2.44029 4.38049C3.51188 4.38049 4.38057 3.51182 4.38057 2.44025C4.38057 1.36868 3.51188 0.5 2.44029 0.5C1.3687 0.5 0.5 1.36868 0.5 2.44025C0.5 3.51182 1.3687 4.38049 2.44029 4.38049Z" stroke="white" stroke-linecap="round" stroke-linejoin="round"/>
</svg>
