<svg width="20" height="20" viewBox="0 0 20 20" fill="none" xmlns="http://www.w3.org/2000/svg">
<path d="M14.3244 0.5H5.10813C2.56313 0.5 0.5 2.56313 0.5 5.10813V14.3244C0.5 16.8694 2.56313 18.9325 5.10813 18.9325H14.3244C16.8694 18.9325 18.9325 16.8694 18.9325 14.3244V5.10813C18.9325 2.56313 16.8694 0.5 14.3244 0.5Z" stroke="white" stroke-linecap="round" stroke-linejoin="round"/>
<path d="M13.4035 9.13575C13.5172 9.90277 13.3862 10.6861 13.0291 11.3744C12.6719 12.0627 12.1069 12.6208 11.4142 12.9694C10.7216 13.318 9.93671 13.4394 9.17115 13.3162C8.40559 13.193 7.69836 12.8316 7.15007 12.2833C6.60177 11.735 6.24033 11.0277 6.11714 10.2622C5.99395 9.49662 6.11529 8.71171 6.46391 8.01909C6.81252 7.32647 7.37066 6.76141 8.05893 6.40428C8.7472 6.04715 9.53055 5.91613 10.2976 6.02987C11.08 6.14589 11.8043 6.51047 12.3636 7.06975C12.9229 7.62903 13.2874 8.35336 13.4035 9.13575Z" stroke="white" stroke-linecap="round" stroke-linejoin="round"/>
<path d="M14.7852 4.6482H14.7951" stroke="white" stroke-linecap="round" stroke-linejoin="round"/>
</svg>
