<svg width="643" height="562" viewBox="0 0 643 562" fill="none" xmlns="http://www.w3.org/2000/svg">
<path opacity="0.03" d="M401.244 28.3516L116.087 312.107L109.192 318.969L107.962 328.618C105.744 346.012 112.09 361.112 124.318 370.595C134.541 378.522 146.25 380.538 153.925 380.538H165.502L173.77 372.435L414.22 136.764C414.901 136.297 415.822 135.676 416.968 134.935C419.999 132.973 424.555 130.179 430.329 127.083C441.989 120.83 458.029 113.662 476.118 109.396C511.379 101.081 552.715 103.672 588.493 145.752C613.627 175.313 616.989 208.265 613.506 235.575C611.758 249.281 608.306 261.121 605.281 269.516C603.914 273.31 602.657 276.331 601.733 278.423L355.936 533.648H239.021L527.925 252.616L533.948 246.757L535.806 238.562C537.627 230.53 537.974 221.661 535.184 212.88C532.285 203.759 526.652 196.822 520.053 192.134C508.186 183.703 494.713 183.313 487.248 184.126L477.565 185.181L470.575 191.963L220.616 434.478C220.257 434.684 219.854 434.914 219.407 435.163C216.89 436.566 213.044 438.587 208.111 440.813C198.165 445.302 184.246 450.427 168.19 453.195C136.743 458.618 97.778 455.154 61.7441 419.465C31.6894 389.698 26.3246 354.76 28.9219 325.33C30.2298 310.51 33.5652 297.531 36.5996 288.249C37.9232 284.201 39.1649 280.929 40.1094 278.6L293.002 28.3516H401.244Z" stroke="#FAF3E3" stroke-width="56.7033"/>
</svg>
