<svg width="173" height="38" viewBox="0 0 173 38" fill="none" xmlns="http://www.w3.org/2000/svg">
<mask id="path-1-outside-1_397_1357" maskUnits="userSpaceOnUse" x="47" y="10.4561" width="126" height="17" fill="black">
<rect fill="white" x="47" y="10.4561" width="126" height="17"/>
<path d="M50.704 14.7041C50.704 19.6441 61.91 17.0181 61.91 22.4001C61.91 25.0001 58.894 26.6381 55.228 26.6381C49.586 26.6381 48.52 22.4781 48.52 22.4781H50.158C50.158 22.4781 50.99 26.4561 55.228 26.4561C58.01 26.4561 60.272 24.9221 60.272 23.0241C60.272 18.4481 49.066 20.6841 49.066 15.3541C49.066 12.7281 51.822 11.0901 55.228 11.0901C60.532 11.0901 61.338 15.2501 61.338 15.2501H59.7C59.7 15.2501 59.154 11.2721 55.228 11.2721C52.732 11.2721 50.704 12.8061 50.704 14.7041ZM64.6699 11.2721H76.5779L77.3059 14.1841H77.1239C76.6299 12.2341 75.9799 11.4541 74.9919 11.4541H72.2619C71.7679 11.4541 71.3519 11.9221 71.3519 12.9101V24.8181C71.3519 25.8061 71.7679 26.2741 72.2619 26.2741V26.4561H69.0119V26.2741C69.5059 26.2741 69.8959 25.8061 69.8959 24.8181V12.9101C69.8959 11.9221 69.5059 11.4541 69.0119 11.4541H66.2559C65.2679 11.4541 64.6179 12.2341 64.1239 14.1841H63.9419L64.6699 11.2721ZM81.6784 12.9101V20.6581H84.6684C87.8404 20.6581 89.6084 18.6041 89.6084 16.0561C89.6084 13.5341 87.8404 11.4541 84.6684 11.4541H82.5884C82.0944 11.4541 81.6784 11.9221 81.6784 12.9101ZM87.7364 20.4241L90.7004 24.8181C91.3504 25.8061 92.2084 26.2741 92.7024 26.2741V26.4561H89.1404V26.2741C89.6344 26.2741 89.6344 25.8061 88.9584 24.8181L86.2024 20.7621C85.7084 20.8141 85.2144 20.8401 84.6684 20.8401H81.6784V24.8181C81.6784 25.8061 82.0944 26.2741 82.5884 26.2741V26.4561H79.3384V26.2741C79.8324 26.2741 80.2484 25.8061 80.2484 24.8181V12.9101C80.2484 11.9221 79.8324 11.4541 79.3384 11.4541V11.2721H84.6684C88.7504 11.2721 91.2464 13.1181 91.2464 16.0561C91.2464 18.1621 89.9724 19.7221 87.7364 20.4241ZM101.261 13.4821L97.5168 22.4001H105.005L101.261 13.4821ZM101.911 11.2721L107.605 24.8181C107.995 25.8061 108.671 26.2741 109.191 26.2741V26.4561H105.811V26.2741C106.305 26.2741 106.435 25.8061 106.019 24.8181L105.083 22.5821H97.4648L96.5028 24.8181C96.1128 25.8061 96.2428 26.2741 96.7368 26.2741V26.4561H94.7348V26.2741C95.2288 26.2741 95.9048 25.8061 96.3208 24.8181L101.157 13.2481L100.351 11.2721H101.911ZM108.701 11.2721H120.609L121.337 14.1841H121.155C120.661 12.2341 120.011 11.4541 119.023 11.4541H116.293C115.799 11.4541 115.383 11.9221 115.383 12.9101V24.8181C115.383 25.8061 115.799 26.2741 116.293 26.2741V26.4561H113.043V26.2741C113.537 26.2741 113.927 25.8061 113.927 24.8181V12.9101C113.927 11.9221 113.537 11.4541 113.043 11.4541H110.287C109.299 11.4541 108.649 12.2341 108.155 14.1841H107.973L108.701 11.2721ZM123.37 11.4541V11.2721H126.646V11.4541C126.152 11.4541 125.736 11.9221 125.736 12.9101V24.8181C125.736 25.8061 126.152 26.2741 126.646 26.2741V26.4561H123.37V26.2741C123.89 26.2741 124.28 25.8061 124.28 24.8181V12.9101C124.28 11.9221 123.89 11.4541 123.37 11.4541ZM128.686 11.2721H138.436L139.164 14.1841H138.982C138.488 12.2341 137.838 11.4541 136.85 11.4541H131.936C131.442 11.4541 131.052 11.9221 131.052 12.9101V18.7861H135.732C136.694 18.7861 137.162 18.3181 137.162 17.3301H137.344V20.3981H137.162C137.162 19.4361 136.694 18.9681 135.732 18.9681H131.052V24.8181C131.052 25.8061 131.442 26.2741 131.936 26.2741V26.4561H128.686V26.2741C129.18 26.2741 129.596 25.8061 129.596 24.8181V12.9101C129.596 11.9221 129.18 11.4541 128.686 11.4541V11.2721ZM153.641 11.4541V11.2721H155.669V11.4541C155.175 11.4541 154.317 11.9221 153.589 12.9101L149.169 19.0461V24.8181C149.169 25.8061 149.585 26.2741 150.079 26.2741V26.4561H146.829V26.2741C147.323 26.2741 147.739 25.8061 147.739 24.8181V19.4881L143.267 12.9101C142.591 11.9221 141.733 11.4541 141.213 11.4541V11.2721H144.775V11.4541C144.281 11.4541 144.333 11.9221 145.009 12.9101L149.065 18.8901L153.355 12.9101C154.057 11.9221 154.135 11.4541 153.641 11.4541ZM170.104 24.8181C170.78 25.8061 171.638 26.2741 172.158 26.2741V26.4561H168.596V26.2741C169.09 26.2741 169.038 25.8061 168.362 24.8181L164.54 19.1761L160.12 24.8181C159.34 25.8061 159.236 26.2741 159.73 26.2741V26.4561H157.702V26.2741C158.196 26.2741 159.106 25.8061 159.886 24.8181L164.41 19.0201L160.276 12.9101C159.6 11.9221 158.742 11.4541 158.248 11.4541V11.2721H161.784V11.4541C161.29 11.4541 161.342 11.9221 162.018 12.9101L165.346 17.8241L169.194 12.9101C169.948 11.9221 170.052 11.4541 169.558 11.4541V11.2721H171.612V11.4541C171.118 11.4541 170.208 11.9221 169.428 12.9101L165.45 17.9801L170.104 24.8181Z"/>
</mask>
<path d="M50.704 14.7041C50.704 19.6441 61.91 17.0181 61.91 22.4001C61.91 25.0001 58.894 26.6381 55.228 26.6381C49.586 26.6381 48.52 22.4781 48.52 22.4781H50.158C50.158 22.4781 50.99 26.4561 55.228 26.4561C58.01 26.4561 60.272 24.9221 60.272 23.0241C60.272 18.4481 49.066 20.6841 49.066 15.3541C49.066 12.7281 51.822 11.0901 55.228 11.0901C60.532 11.0901 61.338 15.2501 61.338 15.2501H59.7C59.7 15.2501 59.154 11.2721 55.228 11.2721C52.732 11.2721 50.704 12.8061 50.704 14.7041ZM64.6699 11.2721H76.5779L77.3059 14.1841H77.1239C76.6299 12.2341 75.9799 11.4541 74.9919 11.4541H72.2619C71.7679 11.4541 71.3519 11.9221 71.3519 12.9101V24.8181C71.3519 25.8061 71.7679 26.2741 72.2619 26.2741V26.4561H69.0119V26.2741C69.5059 26.2741 69.8959 25.8061 69.8959 24.8181V12.9101C69.8959 11.9221 69.5059 11.4541 69.0119 11.4541H66.2559C65.2679 11.4541 64.6179 12.2341 64.1239 14.1841H63.9419L64.6699 11.2721ZM81.6784 12.9101V20.6581H84.6684C87.8404 20.6581 89.6084 18.6041 89.6084 16.0561C89.6084 13.5341 87.8404 11.4541 84.6684 11.4541H82.5884C82.0944 11.4541 81.6784 11.9221 81.6784 12.9101ZM87.7364 20.4241L90.7004 24.8181C91.3504 25.8061 92.2084 26.2741 92.7024 26.2741V26.4561H89.1404V26.2741C89.6344 26.2741 89.6344 25.8061 88.9584 24.8181L86.2024 20.7621C85.7084 20.8141 85.2144 20.8401 84.6684 20.8401H81.6784V24.8181C81.6784 25.8061 82.0944 26.2741 82.5884 26.2741V26.4561H79.3384V26.2741C79.8324 26.2741 80.2484 25.8061 80.2484 24.8181V12.9101C80.2484 11.9221 79.8324 11.4541 79.3384 11.4541V11.2721H84.6684C88.7504 11.2721 91.2464 13.1181 91.2464 16.0561C91.2464 18.1621 89.9724 19.7221 87.7364 20.4241ZM101.261 13.4821L97.5168 22.4001H105.005L101.261 13.4821ZM101.911 11.2721L107.605 24.8181C107.995 25.8061 108.671 26.2741 109.191 26.2741V26.4561H105.811V26.2741C106.305 26.2741 106.435 25.8061 106.019 24.8181L105.083 22.5821H97.4648L96.5028 24.8181C96.1128 25.8061 96.2428 26.2741 96.7368 26.2741V26.4561H94.7348V26.2741C95.2288 26.2741 95.9048 25.8061 96.3208 24.8181L101.157 13.2481L100.351 11.2721H101.911ZM108.701 11.2721H120.609L121.337 14.1841H121.155C120.661 12.2341 120.011 11.4541 119.023 11.4541H116.293C115.799 11.4541 115.383 11.9221 115.383 12.9101V24.8181C115.383 25.8061 115.799 26.2741 116.293 26.2741V26.4561H113.043V26.2741C113.537 26.2741 113.927 25.8061 113.927 24.8181V12.9101C113.927 11.9221 113.537 11.4541 113.043 11.4541H110.287C109.299 11.4541 108.649 12.2341 108.155 14.1841H107.973L108.701 11.2721ZM123.37 11.4541V11.2721H126.646V11.4541C126.152 11.4541 125.736 11.9221 125.736 12.9101V24.8181C125.736 25.8061 126.152 26.2741 126.646 26.2741V26.4561H123.37V26.2741C123.89 26.2741 124.28 25.8061 124.28 24.8181V12.9101C124.28 11.9221 123.89 11.4541 123.37 11.4541ZM128.686 11.2721H138.436L139.164 14.1841H138.982C138.488 12.2341 137.838 11.4541 136.85 11.4541H131.936C131.442 11.4541 131.052 11.9221 131.052 12.9101V18.7861H135.732C136.694 18.7861 137.162 18.3181 137.162 17.3301H137.344V20.3981H137.162C137.162 19.4361 136.694 18.9681 135.732 18.9681H131.052V24.8181C131.052 25.8061 131.442 26.2741 131.936 26.2741V26.4561H128.686V26.2741C129.18 26.2741 129.596 25.8061 129.596 24.8181V12.9101C129.596 11.9221 129.18 11.4541 128.686 11.4541V11.2721ZM153.641 11.4541V11.2721H155.669V11.4541C155.175 11.4541 154.317 11.9221 153.589 12.9101L149.169 19.0461V24.8181C149.169 25.8061 149.585 26.2741 150.079 26.2741V26.4561H146.829V26.2741C147.323 26.2741 147.739 25.8061 147.739 24.8181V19.4881L143.267 12.9101C142.591 11.9221 141.733 11.4541 141.213 11.4541V11.2721H144.775V11.4541C144.281 11.4541 144.333 11.9221 145.009 12.9101L149.065 18.8901L153.355 12.9101C154.057 11.9221 154.135 11.4541 153.641 11.4541ZM170.104 24.8181C170.78 25.8061 171.638 26.2741 172.158 26.2741V26.4561H168.596V26.2741C169.09 26.2741 169.038 25.8061 168.362 24.8181L164.54 19.1761L160.12 24.8181C159.34 25.8061 159.236 26.2741 159.73 26.2741V26.4561H157.702V26.2741C158.196 26.2741 159.106 25.8061 159.886 24.8181L164.41 19.0201L160.276 12.9101C159.6 11.9221 158.742 11.4541 158.248 11.4541V11.2721H161.784V11.4541C161.29 11.4541 161.342 11.9221 162.018 12.9101L165.346 17.8241L169.194 12.9101C169.948 11.9221 170.052 11.4541 169.558 11.4541V11.2721H171.612V11.4541C171.118 11.4541 170.208 11.9221 169.428 12.9101L165.45 17.9801L170.104 24.8181Z" fill="white"/>
<path d="M48.52 22.4781V21.8781H47.7469L47.9388 22.627L48.52 22.4781ZM50.158 22.4781L50.7453 22.3552L50.6455 21.8781H50.158V22.4781ZM61.338 15.2501V15.8501H62.0654L61.927 15.1359L61.338 15.2501ZM59.7 15.2501L59.1056 15.3316L59.1767 15.8501H59.7V15.2501ZM50.704 14.7041H50.104C50.104 15.4448 50.3173 16.071 50.7043 16.5907C51.084 17.1006 51.6074 17.4768 52.1836 17.7689C53.316 18.343 54.8031 18.6612 56.1746 18.9715C57.5954 19.2929 58.9055 19.6078 59.8661 20.1453C60.3362 20.4084 60.6923 20.7093 60.9315 21.063C61.1662 21.4098 61.31 21.8387 61.31 22.4001H61.91H62.51C62.51 21.6159 62.3036 20.9495 61.9254 20.3906C61.5519 19.8384 61.0325 19.4229 60.452 19.0981C59.3115 18.4599 57.8201 18.1134 56.4394 17.8011C55.0094 17.4776 53.695 17.1897 52.7262 16.6986C52.2519 16.4582 51.8999 16.187 51.6667 15.874C51.4409 15.5706 51.304 15.1983 51.304 14.7041H50.704ZM61.91 22.4001H61.31C61.31 23.4326 60.7212 24.3215 59.6328 24.9809C58.5369 25.6449 56.9811 26.0381 55.228 26.0381V26.6381V27.2381C57.1409 27.2381 58.9261 26.8122 60.2547 26.0072C61.5908 25.1976 62.51 23.9675 62.51 22.4001H61.91ZM55.228 26.6381V26.0381C52.5749 26.0381 51.0561 25.0682 50.1967 24.1484C49.7599 23.681 49.4824 23.2143 49.3151 22.8674C49.2317 22.6943 49.1762 22.5523 49.1426 22.457C49.1258 22.4094 49.1145 22.3736 49.1078 22.3516C49.1045 22.3406 49.1024 22.333 49.1013 22.3292C49.1008 22.3273 49.1005 22.3263 49.1005 22.3263C49.1005 22.3263 49.1005 22.3265 49.1007 22.327C49.1007 22.3272 49.1008 22.3275 49.1009 22.3279C49.1009 22.328 49.101 22.3284 49.101 22.3284C49.1011 22.3288 49.1012 22.3291 48.52 22.4781C47.9388 22.627 47.9389 22.6274 47.939 22.6278C47.939 22.6279 47.9391 22.6283 47.9392 22.6286C47.9394 22.6292 47.9395 22.6299 47.9397 22.6307C47.9401 22.6321 47.9406 22.6339 47.9411 22.6359C47.9422 22.6398 47.9435 22.6448 47.9452 22.6508C47.9485 22.6627 47.953 22.6785 47.9589 22.698C47.9706 22.7369 47.9877 22.7904 48.0111 22.8566C48.0577 22.9888 48.1297 23.1718 48.2343 23.3887C48.4432 23.8218 48.7848 24.3951 49.3198 24.9677C50.4039 26.1279 52.2391 27.2381 55.228 27.2381V26.6381ZM48.52 22.4781V23.0781H50.158V22.4781V21.8781H48.52V22.4781ZM50.158 22.4781C49.5707 22.6009 49.5708 22.6012 49.5708 22.6015C49.5709 22.6016 49.5709 22.602 49.571 22.6022C49.5711 22.6028 49.5712 22.6033 49.5714 22.604C49.5716 22.6052 49.572 22.6068 49.5723 22.6085C49.5731 22.612 49.5741 22.6165 49.5753 22.6219C49.5778 22.6327 49.5812 22.6473 49.5856 22.6653C49.5944 22.7014 49.6073 22.7515 49.625 22.8136C49.6604 22.9376 49.7151 23.1105 49.7946 23.316C49.9529 23.7255 50.2131 24.2735 50.6219 24.8245C51.4511 25.9424 52.8854 27.0561 55.228 27.0561V26.4561V25.8561C53.3326 25.8561 52.2319 24.9808 51.5856 24.1096C51.2567 23.6661 51.0439 23.2196 50.9138 22.8832C50.8491 22.7158 50.8057 22.5779 50.779 22.4844C50.7657 22.4377 50.7566 22.4023 50.7512 22.3801C50.7485 22.369 50.7467 22.3613 50.7457 22.357C50.7452 22.3549 50.745 22.3537 50.7449 22.3534C50.7449 22.3532 50.7449 22.3533 50.7449 22.3536C50.745 22.3537 50.745 22.354 50.7451 22.3542C50.7451 22.3544 50.7452 22.3546 50.7452 22.3547C50.7452 22.3549 50.7453 22.3552 50.158 22.4781ZM55.228 26.4561V27.0561C56.7233 27.0561 58.1054 26.6448 59.1305 25.948C60.1526 25.2533 60.872 24.2306 60.872 23.0241H60.272H59.672C59.672 23.7155 59.2604 24.4088 58.456 24.9556C57.6546 25.5003 56.5147 25.8561 55.228 25.8561V26.4561ZM60.272 23.0241H60.872C60.872 21.555 59.938 20.6734 58.7861 20.1063C57.6612 19.5526 56.1799 19.2208 54.8104 18.8887C53.3938 18.5452 52.0809 18.199 51.1187 17.639C50.1955 17.1017 49.666 16.414 49.666 15.3541H49.066H48.466C48.466 16.9591 49.3372 17.9906 50.5151 18.6762C51.6541 19.339 53.1427 19.7191 54.5276 20.0549C55.9596 20.4021 57.2798 20.7024 58.2561 21.183C59.2053 21.6502 59.672 22.2051 59.672 23.0241H60.272ZM49.066 15.3541H49.666C49.666 14.281 50.2191 13.3874 51.2009 12.7377C52.1949 12.0798 53.6125 11.6901 55.228 11.6901V11.0901V10.4901C53.4375 10.4901 51.7741 10.9193 50.5386 11.737C49.2909 12.5627 48.466 13.8011 48.466 15.3541H49.066ZM55.228 11.0901V11.6901C57.6976 11.6901 59.0575 12.6476 59.8106 13.5536C60.1952 14.0162 60.4326 14.4796 60.5733 14.8259C60.6434 14.9985 60.6888 15.1403 60.716 15.2357C60.7295 15.2833 60.7385 15.3192 60.7437 15.3413C60.7463 15.3523 60.748 15.36 60.7488 15.3639C60.7493 15.3658 60.7495 15.3668 60.7495 15.3669C60.7495 15.3669 60.7495 15.3667 60.7494 15.3663C60.7493 15.366 60.7493 15.3658 60.7492 15.3654C60.7492 15.3652 60.7491 15.3649 60.7491 15.3648C60.749 15.3645 60.749 15.3642 61.338 15.2501C61.927 15.1359 61.927 15.1356 61.9269 15.1352C61.9269 15.135 61.9268 15.1346 61.9267 15.1343C61.9266 15.1337 61.9265 15.1331 61.9263 15.1323C61.926 15.1309 61.9257 15.1291 61.9253 15.1272C61.9245 15.1233 61.9235 15.1183 61.9222 15.1124C61.9197 15.1005 61.9162 15.0848 61.9116 15.0654C61.9024 15.0266 61.8889 14.9731 61.8701 14.9069C61.8324 14.7748 61.7734 14.5916 61.6851 14.3742C61.5089 13.9405 61.2133 13.3639 60.7334 12.7865C59.7575 11.6125 58.0624 10.4901 55.228 10.4901V11.0901ZM61.338 15.2501V14.6501H59.7V15.2501V15.8501H61.338V15.2501ZM59.7 15.2501C60.2944 15.1685 60.2944 15.1682 60.2943 15.1679C60.2943 15.1677 60.2943 15.1674 60.2942 15.1672C60.2942 15.1667 60.2941 15.1661 60.294 15.1655C60.2938 15.1642 60.2936 15.1627 60.2934 15.161C60.2929 15.1576 60.2922 15.1531 60.2914 15.1478C60.2898 15.1371 60.2875 15.1227 60.2844 15.1047C60.2783 15.0689 60.2692 15.019 60.2563 14.9571C60.2306 14.8334 60.1898 14.6607 60.1278 14.4552C60.0044 14.0462 59.7938 13.496 59.4437 12.941C58.7319 11.8123 57.4403 10.6721 55.228 10.6721V11.2721V11.8721C56.9417 11.8721 57.8861 12.7208 58.4288 13.5811C58.706 14.0207 58.8773 14.4649 58.9789 14.8018C59.0294 14.9692 59.0619 15.1073 59.0814 15.2012C59.0911 15.248 59.0976 15.2836 59.1014 15.306C59.1033 15.3172 59.1046 15.3251 59.1052 15.3295C59.1056 15.3317 59.1058 15.333 59.1058 15.3333C59.1058 15.3335 59.1058 15.3335 59.1058 15.3332C59.1058 15.333 59.1057 15.3328 59.1057 15.3326C59.1057 15.3325 59.1057 15.3322 59.1056 15.3322C59.1056 15.3319 59.1056 15.3316 59.7 15.2501ZM55.228 11.2721V10.6721C53.8613 10.6721 52.6001 11.0913 51.6676 11.7981C50.7345 12.5053 50.104 13.5267 50.104 14.7041H50.704H51.304C51.304 13.9834 51.6875 13.2888 52.3924 12.7545C53.0979 12.2198 54.0987 11.8721 55.228 11.8721V11.2721ZM64.6699 11.2721V10.6721H64.2014L64.0878 11.1265L64.6699 11.2721ZM76.5779 11.2721L77.16 11.1265L77.0463 10.6721H76.5779V11.2721ZM77.3059 14.1841V14.7841H78.0743L77.888 14.0385L77.3059 14.1841ZM77.1239 14.1841L76.5422 14.3314L76.6569 14.7841H77.1239V14.1841ZM72.2619 26.2741H72.8619V25.6741H72.2619V26.2741ZM72.2619 26.4561V27.0561H72.8619V26.4561H72.2619ZM69.0119 26.4561H68.4119V27.0561H69.0119V26.4561ZM69.0119 26.2741V25.6741H68.4119V26.2741H69.0119ZM64.1239 14.1841V14.7841H64.5908L64.7055 14.3314L64.1239 14.1841ZM63.9419 14.1841L63.3598 14.0385L63.1734 14.7841H63.9419V14.1841ZM64.6699 11.2721V11.8721H76.5779V11.2721V10.6721H64.6699V11.2721ZM76.5779 11.2721L75.9958 11.4176L76.7238 14.3296L77.3059 14.1841L77.888 14.0385L77.16 11.1265L76.5779 11.2721ZM77.3059 14.1841V13.5841H77.1239V14.1841V14.7841H77.3059V14.1841ZM77.1239 14.1841L77.7055 14.0367C77.4518 13.0354 77.1405 12.2541 76.7133 11.7151C76.2588 11.1416 75.6801 10.8541 74.9919 10.8541V11.4541V12.0541C75.2916 12.0541 75.5319 12.1565 75.7729 12.4605C76.0412 12.799 76.3019 13.3827 76.5422 14.3314L77.1239 14.1841ZM74.9919 11.4541V10.8541H72.2619V11.4541V12.0541H74.9919V11.4541ZM72.2619 11.4541V10.8541C71.8027 10.8541 71.3966 11.0807 71.1276 11.4711C70.8704 11.8443 70.7519 12.3412 70.7519 12.9101H71.3519H71.9519C71.9519 12.4909 72.0414 12.2598 72.1157 12.152C72.1781 12.0614 72.2271 12.0541 72.2619 12.0541V11.4541ZM71.3519 12.9101H70.7519V24.8181H71.3519H71.9519V12.9101H71.3519ZM71.3519 24.8181H70.7519C70.7519 25.387 70.8704 25.8838 71.1276 26.257C71.3966 26.6474 71.8027 26.8741 72.2619 26.8741V26.2741V25.6741C72.2271 25.6741 72.1781 25.6667 72.1157 25.5761C72.0414 25.4683 71.9519 25.2372 71.9519 24.8181H71.3519ZM72.2619 26.2741H71.6619V26.4561H72.2619H72.8619V26.2741H72.2619ZM72.2619 26.4561V25.8561H69.0119V26.4561V27.0561H72.2619V26.4561ZM69.0119 26.4561H69.6119V26.2741H69.0119H68.4119V26.4561H69.0119ZM69.0119 26.2741V26.8741C69.4754 26.8741 69.8777 26.643 70.1394 26.2478C70.3867 25.8744 70.4959 25.38 70.4959 24.8181H69.8959H69.2959C69.2959 25.2442 69.2101 25.4777 69.1389 25.5853C69.082 25.6711 69.0424 25.6741 69.0119 25.6741V26.2741ZM69.8959 24.8181H70.4959V12.9101H69.8959H69.2959V24.8181H69.8959ZM69.8959 12.9101H70.4959C70.4959 12.3482 70.3867 11.8537 70.1394 11.4803C69.8777 11.0851 69.4754 10.8541 69.0119 10.8541V11.4541V12.0541C69.0424 12.0541 69.082 12.057 69.1389 12.1428C69.2101 12.2504 69.2959 12.484 69.2959 12.9101H69.8959ZM69.0119 11.4541V10.8541H66.2559V11.4541V12.0541H69.0119V11.4541ZM66.2559 11.4541V10.8541C65.5676 10.8541 64.9889 11.1416 64.5344 11.7151C64.1072 12.2541 63.7959 13.0354 63.5422 14.0367L64.1239 14.1841L64.7055 14.3314C64.9458 13.3827 65.2065 12.799 65.4748 12.4605C65.7158 12.1565 65.9561 12.0541 66.2559 12.0541V11.4541ZM64.1239 14.1841V13.5841H63.9419V14.1841V14.7841H64.1239V14.1841ZM63.9419 14.1841L64.524 14.3296L65.252 11.4176L64.6699 11.2721L64.0878 11.1265L63.3598 14.0385L63.9419 14.1841ZM81.6784 20.6581H81.0784V21.2581H81.6784V20.6581ZM87.7364 20.4241L87.5566 19.8516L86.789 20.0926L87.2389 20.7596L87.7364 20.4241ZM90.7004 24.8181L91.2016 24.4883L91.1978 24.4825L90.7004 24.8181ZM92.7024 26.2741H93.3024V25.6741H92.7024V26.2741ZM92.7024 26.4561V27.0561H93.3024V26.4561H92.7024ZM89.1404 26.4561H88.5404V27.0561H89.1404V26.4561ZM89.1404 26.2741V25.6741H88.5404V26.2741H89.1404ZM88.9584 24.8181L88.4621 25.1553L88.4632 25.1569L88.9584 24.8181ZM86.2024 20.7621L86.6986 20.4248L86.4968 20.1277L86.1395 20.1654L86.2024 20.7621ZM81.6784 20.8401V20.2401H81.0784V20.8401H81.6784ZM82.5884 26.2741H83.1884V25.6741H82.5884V26.2741ZM82.5884 26.4561V27.0561H83.1884V26.4561H82.5884ZM79.3384 26.4561H78.7384V27.0561H79.3384V26.4561ZM79.3384 26.2741V25.6741H78.7384V26.2741H79.3384ZM79.3384 11.4541H78.7384V12.0541H79.3384V11.4541ZM79.3384 11.2721V10.6721H78.7384V11.2721H79.3384ZM81.6784 12.9101H81.0784V20.6581H81.6784H82.2784V12.9101H81.6784ZM81.6784 20.6581V21.2581H84.6684V20.6581V20.0581H81.6784V20.6581ZM84.6684 20.6581V21.2581C86.3878 21.2581 87.7831 20.6983 88.7505 19.7385C89.7157 18.7807 90.2084 17.4704 90.2084 16.0561H89.6084H89.0084C89.0084 17.1897 88.617 18.1804 87.9053 18.8866C87.1956 19.5908 86.1209 20.0581 84.6684 20.0581V20.6581ZM89.6084 16.0561H90.2084C90.2084 14.6536 89.715 13.3442 88.7513 12.3842C87.785 11.4217 86.39 10.8541 84.6684 10.8541V11.4541V12.0541C86.1187 12.0541 87.1937 12.5265 87.9044 13.2344C88.6177 13.9449 89.0084 14.9366 89.0084 16.0561H89.6084ZM84.6684 11.4541V10.8541H82.5884V11.4541V12.0541H84.6684V11.4541ZM82.5884 11.4541V10.8541C82.1292 10.8541 81.7231 11.0807 81.4541 11.4711C81.1969 11.8443 81.0784 12.3412 81.0784 12.9101H81.6784H82.2784C82.2784 12.4909 82.3679 12.2598 82.4421 12.152C82.5046 12.0614 82.5536 12.0541 82.5884 12.0541V11.4541ZM87.7364 20.4241L87.2389 20.7596L90.2029 25.1536L90.7004 24.8181L91.1978 24.4825L88.2338 20.0885L87.7364 20.4241ZM90.7004 24.8181L90.1991 25.1478C90.5661 25.7057 90.9988 26.1277 91.425 26.4144C91.8368 26.6914 92.2917 26.8741 92.7024 26.8741V26.2741V25.6741C92.6191 25.6741 92.398 25.6227 92.0948 25.4187C91.8059 25.2244 91.4846 24.9184 91.2016 24.4883L90.7004 24.8181ZM92.7024 26.2741H92.1024V26.4561H92.7024H93.3024V26.2741H92.7024ZM92.7024 26.4561V25.8561H89.1404V26.4561V27.0561H92.7024V26.4561ZM89.1404 26.4561H89.7404V26.2741H89.1404H88.5404V26.4561H89.1404ZM89.1404 26.2741V26.8741C89.3433 26.8741 89.6234 26.8276 89.8411 26.6083C90.0695 26.3783 90.1067 26.0843 90.0854 25.8601C90.0469 25.4528 89.7943 24.9773 89.4535 24.4792L88.9584 24.8181L88.4632 25.1569C88.621 25.3876 88.7301 25.5746 88.8001 25.721C88.8731 25.8738 88.8888 25.9523 88.8908 25.9731C88.8923 25.9893 88.8791 25.8741 88.9897 25.7627C89.0896 25.6621 89.1844 25.6741 89.1404 25.6741V26.2741ZM88.9584 24.8181L89.4546 24.4808L86.6986 20.4248L86.2024 20.7621L85.7061 21.0993L88.4621 25.1553L88.9584 24.8181ZM86.2024 20.7621L86.1395 20.1654C85.6674 20.2151 85.1944 20.2401 84.6684 20.2401V20.8401V21.4401C85.2344 21.4401 85.7494 21.4131 86.2652 21.3588L86.2024 20.7621ZM84.6684 20.8401V20.2401H81.6784V20.8401V21.4401H84.6684V20.8401ZM81.6784 20.8401H81.0784V24.8181H81.6784H82.2784V20.8401H81.6784ZM81.6784 24.8181H81.0784C81.0784 25.3869 81.1969 25.8838 81.4541 26.257C81.7231 26.6474 82.1292 26.8741 82.5884 26.8741V26.2741V25.6741C82.5536 25.6741 82.5046 25.6667 82.4421 25.5761C82.3679 25.4683 82.2784 25.2372 82.2784 24.8181H81.6784ZM82.5884 26.2741H81.9884V26.4561H82.5884H83.1884V26.2741H82.5884ZM82.5884 26.4561V25.8561H79.3384V26.4561V27.0561H82.5884V26.4561ZM79.3384 26.4561H79.9384V26.2741H79.3384H78.7384V26.4561H79.3384ZM79.3384 26.2741V26.8741C79.7976 26.8741 80.2036 26.6474 80.4726 26.257C80.7299 25.8838 80.8484 25.387 80.8484 24.8181H80.2484H79.6484C79.6484 25.2372 79.5589 25.4683 79.4846 25.5761C79.4221 25.6667 79.3732 25.6741 79.3384 25.6741V26.2741ZM80.2484 24.8181H80.8484V12.9101H80.2484H79.6484V24.8181H80.2484ZM80.2484 12.9101H80.8484C80.8484 12.3412 80.7299 11.8443 80.4726 11.4711C80.2036 11.0807 79.7976 10.8541 79.3384 10.8541V11.4541V12.0541C79.3732 12.0541 79.4221 12.0614 79.4846 12.152C79.5589 12.2598 79.6484 12.4909 79.6484 12.9101H80.2484ZM79.3384 11.4541H79.9384V11.2721H79.3384H78.7384V11.4541H79.3384ZM79.3384 11.2721V11.8721H84.6684V11.2721V10.6721H79.3384V11.2721ZM84.6684 11.2721V11.8721C86.6282 11.8721 88.1345 12.3164 89.1341 13.0468C90.1138 13.7626 90.6464 14.7786 90.6464 16.0561H91.2464H91.8464C91.8464 14.3955 91.1309 13.0195 89.8421 12.0778C88.5732 11.1507 86.7905 10.6721 84.6684 10.6721V11.2721ZM91.2464 16.0561H90.6464C90.6464 16.9817 90.3689 17.7628 89.8629 18.3897C89.3535 19.021 88.5854 19.5286 87.5566 19.8516L87.7364 20.4241L87.9161 20.9965C89.1233 20.6175 90.1103 19.9941 90.7968 19.1434C91.4868 18.2883 91.8464 17.2364 91.8464 16.0561H91.2464ZM101.261 13.4821L101.814 13.2498L101.261 11.932L100.708 13.2498L101.261 13.4821ZM97.5168 22.4001L96.9636 22.1678L96.6142 23.0001H97.5168V22.4001ZM105.005 22.4001V23.0001H105.907L105.558 22.1678L105.005 22.4001ZM101.911 11.2721L102.464 11.0396L102.309 10.6721H101.911V11.2721ZM107.605 24.8181L108.163 24.5977L108.158 24.5856L107.605 24.8181ZM109.191 26.2741H109.791V25.6741H109.191V26.2741ZM109.191 26.4561V27.0561H109.791V26.4561H109.191ZM105.811 26.4561H105.211V27.0561H105.811V26.4561ZM105.811 26.2741V25.6741H105.211V26.2741H105.811ZM106.019 24.8181L105.465 25.0497L105.466 25.0509L106.019 24.8181ZM105.083 22.5821L105.636 22.3504L105.482 21.9821H105.083V22.5821ZM97.4648 22.5821V21.9821H97.0698L96.9137 22.3449L97.4648 22.5821ZM96.5028 24.8181L95.9517 24.5809L95.9481 24.5893L95.9448 24.5978L96.5028 24.8181ZM96.7368 26.2741H97.3368V25.6741H96.7368V26.2741ZM96.7368 26.4561V27.0561H97.3368V26.4561H96.7368ZM94.7348 26.4561H94.1348V27.0561H94.7348V26.4561ZM94.7348 26.2741V25.6741H94.1348V26.2741H94.7348ZM96.3208 24.8181L96.8738 25.0509L96.8744 25.0494L96.3208 24.8181ZM101.157 13.2481L101.71 13.4794L101.806 13.2508L101.712 13.0214L101.157 13.2481ZM100.351 11.2721V10.6721H99.4581L99.7953 11.4987L100.351 11.2721ZM101.261 13.4821L100.708 13.2498L96.9636 22.1678L97.5168 22.4001L98.0701 22.6323L101.814 13.7143L101.261 13.4821ZM97.5168 22.4001V23.0001H105.005V22.4001V21.8001H97.5168V22.4001ZM105.005 22.4001L105.558 22.1678L101.814 13.2498L101.261 13.4821L100.708 13.7143L104.452 22.6323L105.005 22.4001ZM101.911 11.2721L101.358 11.5046L107.052 25.0506L107.605 24.8181L108.158 24.5856L102.464 11.0396L101.911 11.2721ZM107.605 24.8181L107.047 25.0384C107.486 26.1514 108.329 26.8741 109.191 26.8741V26.2741V25.6741C109.013 25.6741 108.504 25.4607 108.163 24.5978L107.605 24.8181ZM109.191 26.2741H108.591V26.4561H109.191H109.791V26.2741H109.191ZM109.191 26.4561V25.8561H105.811V26.4561V27.0561H109.191V26.4561ZM105.811 26.4561H106.411V26.2741H105.811H105.211V26.4561H105.811ZM105.811 26.2741V26.8741C106.026 26.8741 106.271 26.8227 106.482 26.6565C106.698 26.4862 106.806 26.2512 106.847 26.0204C106.921 25.6006 106.789 25.1 106.572 24.5852L106.019 24.8181L105.466 25.0509C105.56 25.2742 105.616 25.4512 105.644 25.5863C105.674 25.7254 105.668 25.7941 105.665 25.8127C105.663 25.8224 105.673 25.7661 105.739 25.7145C105.799 25.6669 105.843 25.6741 105.811 25.6741V26.2741ZM106.019 24.8181L106.572 24.5864L105.636 22.3504L105.083 22.5821L104.529 22.8137L105.465 25.0497L106.019 24.8181ZM105.083 22.5821V21.9821H97.4648V22.5821V23.1821H105.083V22.5821ZM97.4648 22.5821L96.9137 22.3449L95.9517 24.5809L96.5028 24.8181L97.054 25.0552L98.016 22.8192L97.4648 22.5821ZM96.5028 24.8181L95.9448 24.5978C95.7416 25.1123 95.62 25.6117 95.6988 26.0281C95.742 26.2566 95.8519 26.489 96.0666 26.6575C96.2768 26.8225 96.5212 26.8741 96.7368 26.8741V26.2741V25.6741C96.7055 25.6741 96.7484 25.6671 96.8075 25.7135C96.871 25.7634 96.8802 25.817 96.8779 25.805C96.874 25.7845 96.8681 25.7146 96.8947 25.575C96.9207 25.4393 96.9727 25.2619 97.0609 25.0384L96.5028 24.8181ZM96.7368 26.2741H96.1368V26.4561H96.7368H97.3368V26.2741H96.7368ZM96.7368 26.4561V25.8561H94.7348V26.4561V27.0561H96.7368V26.4561ZM94.7348 26.4561H95.3348V26.2741H94.7348H94.1348V26.4561H94.7348ZM94.7348 26.2741V26.8741C95.5738 26.8741 96.4122 26.1472 96.8738 25.0509L96.3208 24.8181L95.7679 24.5852C95.3975 25.4649 94.8839 25.6741 94.7348 25.6741V26.2741ZM96.3208 24.8181L96.8744 25.0494L101.71 13.4794L101.157 13.2481L100.603 13.0167L95.7673 24.5867L96.3208 24.8181ZM101.157 13.2481L101.712 13.0214L100.906 11.0454L100.351 11.2721L99.7953 11.4987L100.601 13.4747L101.157 13.2481ZM100.351 11.2721V11.8721H101.911V11.2721V10.6721H100.351V11.2721ZM108.701 11.2721V10.6721H108.233L108.119 11.1265L108.701 11.2721ZM120.609 11.2721L121.191 11.1265L121.078 10.6721H120.609V11.2721ZM121.337 14.1841V14.7841H122.106L121.919 14.0385L121.337 14.1841ZM121.155 14.1841L120.574 14.3314L120.688 14.7841H121.155V14.1841ZM116.293 26.2741H116.893V25.6741H116.293V26.2741ZM116.293 26.4561V27.0561H116.893V26.4561H116.293ZM113.043 26.4561H112.443V27.0561H113.043V26.4561ZM113.043 26.2741V25.6741H112.443V26.2741H113.043ZM108.155 14.1841V14.7841H108.622L108.737 14.3314L108.155 14.1841ZM107.973 14.1841L107.391 14.0385L107.205 14.7841H107.973V14.1841ZM108.701 11.2721V11.8721H120.609V11.2721V10.6721H108.701V11.2721ZM120.609 11.2721L120.027 11.4176L120.755 14.3296L121.337 14.1841L121.919 14.0385L121.191 11.1265L120.609 11.2721ZM121.337 14.1841V13.5841H121.155V14.1841V14.7841H121.337V14.1841ZM121.155 14.1841L121.737 14.0367C121.483 13.0354 121.172 12.2541 120.745 11.7151C120.29 11.1416 119.711 10.8541 119.023 10.8541V11.4541V12.0541C119.323 12.0541 119.563 12.1565 119.804 12.4605C120.072 12.799 120.333 13.3827 120.574 14.3314L121.155 14.1841ZM119.023 11.4541V10.8541H116.293V11.4541V12.0541H119.023V11.4541ZM116.293 11.4541V10.8541C115.834 10.8541 115.428 11.0807 115.159 11.4711C114.902 11.8443 114.783 12.3412 114.783 12.9101H115.383H115.983C115.983 12.4909 116.073 12.2598 116.147 12.152C116.209 12.0614 116.258 12.0541 116.293 12.0541V11.4541ZM115.383 12.9101H114.783V24.8181H115.383H115.983V12.9101H115.383ZM115.383 24.8181H114.783C114.783 25.387 114.902 25.8838 115.159 26.257C115.428 26.6474 115.834 26.8741 116.293 26.8741V26.2741V25.6741C116.258 25.6741 116.209 25.6667 116.147 25.5761C116.073 25.4683 115.983 25.2372 115.983 24.8181H115.383ZM116.293 26.2741H115.693V26.4561H116.293H116.893V26.2741H116.293ZM116.293 26.4561V25.8561H113.043V26.4561V27.0561H116.293V26.4561ZM113.043 26.4561H113.643V26.2741H113.043H112.443V26.4561H113.043ZM113.043 26.2741V26.8741C113.507 26.8741 113.909 26.643 114.171 26.2478C114.418 25.8744 114.527 25.38 114.527 24.8181H113.927H113.327C113.327 25.2442 113.241 25.4777 113.17 25.5853C113.113 25.6711 113.074 25.6741 113.043 25.6741V26.2741ZM113.927 24.8181H114.527V12.9101H113.927H113.327V24.8181H113.927ZM113.927 12.9101H114.527C114.527 12.3482 114.418 11.8537 114.171 11.4803C113.909 11.0851 113.507 10.8541 113.043 10.8541V11.4541V12.0541C113.074 12.0541 113.113 12.057 113.17 12.1428C113.241 12.2504 113.327 12.484 113.327 12.9101H113.927ZM113.043 11.4541V10.8541H110.287V11.4541V12.0541H113.043V11.4541ZM110.287 11.4541V10.8541C109.599 10.8541 109.02 11.1416 108.566 11.7151C108.138 12.2541 107.827 13.0354 107.573 14.0367L108.155 14.1841L108.737 14.3314C108.977 13.3827 109.238 12.799 109.506 12.4605C109.747 12.1565 109.987 12.0541 110.287 12.0541V11.4541ZM108.155 14.1841V13.5841H107.973V14.1841V14.7841H108.155V14.1841ZM107.973 14.1841L108.555 14.3296L109.283 11.4176L108.701 11.2721L108.119 11.1265L107.391 14.0385L107.973 14.1841ZM123.37 11.4541H122.77V12.0541H123.37V11.4541ZM123.37 11.2721V10.6721H122.77V11.2721H123.37ZM126.646 11.2721H127.246V10.6721H126.646V11.2721ZM126.646 11.4541V12.0541H127.246V11.4541H126.646ZM126.646 26.2741H127.246V25.6741H126.646V26.2741ZM126.646 26.4561V27.0561H127.246V26.4561H126.646ZM123.37 26.4561H122.77V27.0561H123.37V26.4561ZM123.37 26.2741V25.6741H122.77V26.2741H123.37ZM123.37 11.4541H123.97V11.2721H123.37H122.77V11.4541H123.37ZM123.37 11.2721V11.8721H126.646V11.2721V10.6721H123.37V11.2721ZM126.646 11.2721H126.046V11.4541H126.646H127.246V11.2721H126.646ZM126.646 11.4541V10.8541C126.186 10.8541 125.78 11.0807 125.511 11.4711C125.254 11.8443 125.136 12.3412 125.136 12.9101H125.736H126.336C126.336 12.4909 126.425 12.2598 126.499 12.152C126.562 12.0614 126.611 12.0541 126.646 12.0541V11.4541ZM125.736 12.9101H125.136V24.8181H125.736H126.336V12.9101H125.736ZM125.736 24.8181H125.136C125.136 25.3869 125.254 25.8838 125.511 26.257C125.78 26.6474 126.186 26.8741 126.646 26.8741V26.2741V25.6741C126.611 25.6741 126.562 25.6667 126.499 25.5761C126.425 25.4683 126.336 25.2372 126.336 24.8181H125.736ZM126.646 26.2741H126.046V26.4561H126.646H127.246V26.2741H126.646ZM126.646 26.4561V25.8561H123.37V26.4561V27.0561H126.646V26.4561ZM123.37 26.4561H123.97V26.2741H123.37H122.77V26.4561H123.37ZM123.37 26.2741V26.8741C123.836 26.8741 124.246 26.6525 124.517 26.2525C124.771 25.8767 124.88 25.3793 124.88 24.8181H124.28H123.68C123.68 25.2448 123.594 25.4754 123.522 25.5806C123.468 25.6616 123.424 25.6741 123.37 25.6741V26.2741ZM124.28 24.8181H124.88V12.9101H124.28H123.68V24.8181H124.28ZM124.28 12.9101H124.88C124.88 12.3488 124.771 11.8514 124.517 11.4756C124.246 11.0756 123.836 10.8541 123.37 10.8541V11.4541V12.0541C123.424 12.0541 123.468 12.0665 123.522 12.1475C123.594 12.2527 123.68 12.4833 123.68 12.9101H124.28ZM128.686 11.2721V10.6721H128.086V11.2721H128.686ZM138.436 11.2721L139.018 11.1265L138.904 10.6721H138.436V11.2721ZM139.164 14.1841V14.7841H139.932L139.746 14.0385L139.164 14.1841ZM138.982 14.1841L138.4 14.3314L138.515 14.7841H138.982V14.1841ZM131.052 18.7861H130.452V19.3861H131.052V18.7861ZM137.162 17.3301V16.7301H136.562V17.3301H137.162ZM137.344 17.3301H137.944V16.7301H137.344V17.3301ZM137.344 20.3981V20.9981H137.944V20.3981H137.344ZM137.162 20.3981H136.562V20.9981H137.162V20.3981ZM131.052 18.9681V18.3681H130.452V18.9681H131.052ZM131.936 26.2741H132.536V25.6741H131.936V26.2741ZM131.936 26.4561V27.0561H132.536V26.4561H131.936ZM128.686 26.4561H128.086V27.0561H128.686V26.4561ZM128.686 26.2741V25.6741H128.086V26.2741H128.686ZM128.686 11.4541H128.086V12.0541H128.686V11.4541ZM128.686 11.2721V11.8721H138.436V11.2721V10.6721H128.686V11.2721ZM138.436 11.2721L137.854 11.4176L138.582 14.3296L139.164 14.1841L139.746 14.0385L139.018 11.1265L138.436 11.2721ZM139.164 14.1841V13.5841H138.982V14.1841V14.7841H139.164V14.1841ZM138.982 14.1841L139.564 14.0367C139.31 13.0354 138.999 12.2541 138.571 11.7151C138.117 11.1416 137.538 10.8541 136.85 10.8541V11.4541V12.0541C137.15 12.0541 137.39 12.1565 137.631 12.4605C137.899 12.799 138.16 13.3827 138.4 14.3314L138.982 14.1841ZM136.85 11.4541V10.8541H131.936V11.4541V12.0541H136.85V11.4541ZM131.936 11.4541V10.8541C131.472 10.8541 131.07 11.0851 130.808 11.4803C130.561 11.8537 130.452 12.3482 130.452 12.9101H131.052H131.652C131.652 12.4839 131.738 12.2504 131.809 12.1428C131.866 12.057 131.906 12.0541 131.936 12.0541V11.4541ZM131.052 12.9101H130.452V18.7861H131.052H131.652V12.9101H131.052ZM131.052 18.7861V19.3861H135.732V18.7861V18.1861H131.052V18.7861ZM135.732 18.7861V19.3861C136.301 19.3861 136.843 19.2475 137.235 18.8499C137.626 18.4539 137.762 17.9084 137.762 17.3301H137.162H136.562C136.562 17.7397 136.465 17.9222 136.381 18.0072C136.298 18.0906 136.125 18.1861 135.732 18.1861V18.7861ZM137.162 17.3301V17.9301H137.344V17.3301V16.7301H137.162V17.3301ZM137.344 17.3301H136.744V20.3981H137.344H137.944V17.3301H137.344ZM137.344 20.3981V19.7981H137.162V20.3981V20.9981H137.344V20.3981ZM137.162 20.3981H137.762C137.762 19.8287 137.624 19.2896 137.232 18.898C136.841 18.5065 136.301 18.3681 135.732 18.3681V18.9681V19.5681C136.125 19.5681 136.301 19.6636 136.383 19.7466C136.466 19.8296 136.562 20.0054 136.562 20.3981H137.162ZM135.732 18.9681V18.3681H131.052V18.9681V19.5681H135.732V18.9681ZM131.052 18.9681H130.452V24.8181H131.052H131.652V18.9681H131.052ZM131.052 24.8181H130.452C130.452 25.38 130.561 25.8744 130.808 26.2478C131.07 26.643 131.472 26.8741 131.936 26.8741V26.2741V25.6741C131.906 25.6741 131.866 25.6711 131.809 25.5853C131.738 25.4777 131.652 25.2442 131.652 24.8181H131.052ZM131.936 26.2741H131.336V26.4561H131.936H132.536V26.2741H131.936ZM131.936 26.4561V25.8561H128.686V26.4561V27.0561H131.936V26.4561ZM128.686 26.4561H129.286V26.2741H128.686H128.086V26.4561H128.686ZM128.686 26.2741V26.8741C129.145 26.8741 129.551 26.6474 129.82 26.257C130.078 25.8838 130.196 25.387 130.196 24.8181H129.596H128.996C128.996 25.2372 128.907 25.4683 128.832 25.5761C128.77 25.6667 128.721 25.6741 128.686 25.6741V26.2741ZM129.596 24.8181H130.196V12.9101H129.596H128.996V24.8181H129.596ZM129.596 12.9101H130.196C130.196 12.3412 130.078 11.8443 129.82 11.4711C129.551 11.0807 129.145 10.8541 128.686 10.8541V11.4541V12.0541C128.721 12.0541 128.77 12.0614 128.832 12.152C128.907 12.2598 128.996 12.4909 128.996 12.9101H129.596ZM128.686 11.4541H129.286V11.2721H128.686H128.086V11.4541H128.686ZM153.641 11.4541H153.041V12.0541H153.641V11.4541ZM153.641 11.2721V10.6721H153.041V11.2721H153.641ZM155.669 11.2721H156.269V10.6721H155.669V11.2721ZM155.669 11.4541V12.0541H156.269V11.4541H155.669ZM153.589 12.9101L153.106 12.5541L153.103 12.5594L153.589 12.9101ZM149.169 19.0461L148.683 18.6954L148.569 18.8525V19.0461H149.169ZM150.079 26.2741H150.679V25.6741H150.079V26.2741ZM150.079 26.4561V27.0561H150.679V26.4561H150.079ZM146.829 26.4561H146.229V27.0561H146.829V26.4561ZM146.829 26.2741V25.6741H146.229V26.2741H146.829ZM147.739 19.4881H148.339V19.3034L148.236 19.1507L147.739 19.4881ZM143.267 12.9101L143.764 12.5727L143.763 12.5712L143.267 12.9101ZM141.213 11.4541H140.613V12.0541H141.213V11.4541ZM141.213 11.2721V10.6721H140.613V11.2721H141.213ZM144.775 11.2721H145.375V10.6721H144.775V11.2721ZM144.775 11.4541V12.0541H145.375V11.4541H144.775ZM145.009 12.9101L145.506 12.5733L145.505 12.5712L145.009 12.9101ZM149.065 18.8901L148.569 19.2268L149.052 19.9386L149.553 19.2398L149.065 18.8901ZM153.355 12.9101L153.843 13.2598L153.844 13.2576L153.355 12.9101ZM153.641 11.4541H154.241V11.2721H153.641H153.041V11.4541H153.641ZM153.641 11.2721V11.8721H155.669V11.2721V10.6721H153.641V11.2721ZM155.669 11.2721H155.069V11.4541H155.669H156.269V11.2721H155.669ZM155.669 11.4541V10.8541C155.259 10.8541 154.805 11.0367 154.388 11.3096C153.957 11.5922 153.509 12.0073 153.106 12.5541L153.589 12.9101L154.072 13.266C154.397 12.8248 154.743 12.5119 155.046 12.3135C155.364 12.1054 155.586 12.0541 155.669 12.0541V11.4541ZM153.589 12.9101L153.103 12.5594L148.683 18.6954L149.169 19.0461L149.656 19.3967L154.076 13.2607L153.589 12.9101ZM149.169 19.0461H148.569V24.8181H149.169H149.769V19.0461H149.169ZM149.169 24.8181H148.569C148.569 25.387 148.688 25.8838 148.945 26.257C149.214 26.6474 149.62 26.8741 150.079 26.8741V26.2741V25.6741C150.045 25.6741 149.996 25.6667 149.933 25.5761C149.859 25.4683 149.769 25.2372 149.769 24.8181H149.169ZM150.079 26.2741H149.479V26.4561H150.079H150.679V26.2741H150.079ZM150.079 26.4561V25.8561H146.829V26.4561V27.0561H150.079V26.4561ZM146.829 26.4561H147.429V26.2741H146.829H146.229V26.4561H146.829ZM146.829 26.2741V26.8741C147.289 26.8741 147.695 26.6474 147.964 26.257C148.221 25.8838 148.339 25.387 148.339 24.8181H147.739H147.139C147.139 25.2372 147.05 25.4683 146.976 25.5761C146.913 25.6667 146.864 25.6741 146.829 25.6741V26.2741ZM147.739 24.8181H148.339V19.4881H147.739H147.139V24.8181H147.739ZM147.739 19.4881L148.236 19.1507L143.764 12.5727L143.267 12.9101L142.771 13.2474L147.243 19.8254L147.739 19.4881ZM143.267 12.9101L143.763 12.5712C143.383 12.0172 142.945 11.5968 142.513 11.311C142.092 11.0332 141.633 10.8541 141.213 10.8541V11.4541V12.0541C141.314 12.0541 141.544 12.1089 141.851 12.3122C142.146 12.5073 142.475 12.8149 142.772 13.2489L143.267 12.9101ZM141.213 11.4541H141.813V11.2721H141.213H140.613V11.4541H141.213ZM141.213 11.2721V11.8721H144.775V11.2721V10.6721H141.213V11.2721ZM144.775 11.2721H144.175V11.4541H144.775H145.375V11.2721H144.775ZM144.775 11.4541V10.8541C144.577 10.8541 144.283 10.8989 144.065 11.1386C143.839 11.3861 143.829 11.6908 143.86 11.8998C143.918 12.2905 144.177 12.7559 144.514 13.2489L145.009 12.9101L145.505 12.5712C145.345 12.3376 145.23 12.1469 145.154 11.9955C145.074 11.8376 145.051 11.7523 145.047 11.7233C145.042 11.6918 145.069 11.8178 144.952 11.9467C144.842 12.0677 144.727 12.0541 144.775 12.0541V11.4541ZM145.009 12.9101L144.513 13.2468L148.569 19.2268L149.065 18.8901L149.562 18.5533L145.506 12.5733L145.009 12.9101ZM149.065 18.8901L149.553 19.2398L153.843 13.2598L153.355 12.9101L152.868 12.5603L148.578 18.5403L149.065 18.8901ZM153.355 12.9101L153.844 13.2576C154.193 12.7664 154.464 12.3065 154.536 11.9231C154.574 11.7223 154.582 11.4101 154.358 11.1506C154.14 10.8975 153.837 10.8541 153.641 10.8541V11.4541V12.0541C153.693 12.0541 153.566 12.0691 153.45 11.9346C153.328 11.7938 153.365 11.6603 153.357 11.7C153.351 11.7327 153.323 11.8214 153.237 11.9816C153.155 12.1352 153.033 12.3277 152.866 12.5625L153.355 12.9101ZM170.104 24.8181L169.608 25.1556L169.608 25.1569L170.104 24.8181ZM172.158 26.2741H172.758V25.6741H172.158V26.2741ZM172.158 26.4561V27.0561H172.758V26.4561H172.158ZM168.596 26.4561H167.996V27.0561H168.596V26.4561ZM168.596 26.2741V25.6741H167.996V26.2741H168.596ZM168.362 24.8181L167.865 25.1546L167.866 25.1569L168.362 24.8181ZM164.54 19.1761L165.036 18.8395L164.575 18.1582L164.067 18.806L164.54 19.1761ZM160.12 24.8181L160.591 25.1898L160.592 25.1881L160.12 24.8181ZM159.73 26.2741H160.33V25.6741H159.73V26.2741ZM159.73 26.4561V27.0561H160.33V26.4561H159.73ZM157.702 26.4561H157.102V27.0561H157.702V26.4561ZM157.702 26.2741V25.6741H157.102V26.2741H157.702ZM159.886 24.8181L160.357 25.1898L160.359 25.1872L159.886 24.8181ZM164.41 19.0201L164.883 19.3892L165.151 19.0452L164.907 18.6838L164.41 19.0201ZM160.276 12.9101L160.773 12.5738L160.771 12.5712L160.276 12.9101ZM158.248 11.4541H157.648V12.0541H158.248V11.4541ZM158.248 11.2721V10.6721H157.648V11.2721H158.248ZM161.784 11.2721H162.384V10.6721H161.784V11.2721ZM161.784 11.4541V12.0541H162.384V11.4541H161.784ZM162.018 12.9101L162.514 12.5736L162.513 12.5712L162.018 12.9101ZM165.346 17.8241L164.849 18.1605L165.31 18.8421L165.818 18.194L165.346 17.8241ZM169.194 12.9101L169.666 13.28L169.671 13.2741L169.194 12.9101ZM169.558 11.4541H168.958V12.0541H169.558V11.4541ZM169.558 11.2721V10.6721H168.958V11.2721H169.558ZM171.612 11.2721H172.212V10.6721H171.612V11.2721ZM171.612 11.4541V12.0541H172.212V11.4541H171.612ZM169.428 12.9101L168.957 12.5383L168.956 12.5397L169.428 12.9101ZM165.45 17.9801L164.978 17.6097L164.707 17.9549L164.954 18.3176L165.45 17.9801ZM170.104 24.8181L169.608 25.1569C169.988 25.7109 170.426 26.1313 170.858 26.4172C171.279 26.6949 171.738 26.8741 172.158 26.8741V26.2741V25.6741C172.057 25.6741 171.827 25.6192 171.52 25.416C171.225 25.2208 170.896 24.9132 170.599 24.4792L170.104 24.8181ZM172.158 26.2741H171.558V26.4561H172.158H172.758V26.2741H172.158ZM172.158 26.4561V25.8561H168.596V26.4561V27.0561H172.158V26.4561ZM168.596 26.4561H169.196V26.2741H168.596H167.996V26.4561H168.596ZM168.596 26.2741V26.8741C168.794 26.8741 169.088 26.8292 169.306 26.5896C169.532 26.342 169.542 26.0373 169.511 25.8283C169.453 25.4376 169.194 24.9722 168.857 24.4792L168.362 24.8181L167.866 25.1569C168.026 25.3905 168.141 25.5813 168.217 25.7326C168.297 25.8905 168.32 25.9758 168.324 26.0048C168.329 26.0363 168.302 25.9103 168.419 25.7814C168.529 25.6604 168.644 25.6741 168.596 25.6741V26.2741ZM168.362 24.8181L168.858 24.4815L165.036 18.8395L164.54 19.1761L164.043 19.5126L167.865 25.1546L168.362 24.8181ZM164.54 19.1761L164.067 18.806L159.647 24.448L160.12 24.8181L160.592 25.1881L165.012 19.5461L164.54 19.1761ZM160.12 24.8181L159.649 24.4463C159.261 24.9371 158.963 25.3903 158.866 25.7673C158.817 25.9585 158.781 26.2827 159.004 26.5607C159.223 26.8331 159.54 26.8741 159.73 26.8741V26.2741V25.6741C159.672 25.6741 159.817 25.6565 159.941 25.8103C160.068 25.9697 160.015 26.1151 160.028 26.0658C160.037 26.0296 160.073 25.9374 160.172 25.7752C160.267 25.6196 160.405 25.4255 160.591 25.1898L160.12 24.8181ZM159.73 26.2741H159.13V26.4561H159.73H160.33V26.2741H159.73ZM159.73 26.4561V25.8561H157.702V26.4561V27.0561H159.73V26.4561ZM157.702 26.4561H158.302V26.2741H157.702H157.102V26.4561H157.702ZM157.702 26.2741V26.8741C158.107 26.8741 158.571 26.6949 159.003 26.4261C159.452 26.1471 159.926 25.7355 160.357 25.1898L159.886 24.8181L159.415 24.4463C159.065 24.8886 158.694 25.205 158.37 25.407C158.028 25.6192 157.79 25.6741 157.702 25.6741V26.2741ZM159.886 24.8181L160.359 25.1872L164.883 19.3892L164.41 19.0201L163.937 18.651L159.413 24.449L159.886 24.8181ZM164.41 19.0201L164.907 18.6838L160.773 12.5738L160.276 12.9101L159.779 13.2463L163.913 19.3563L164.41 19.0201ZM160.276 12.9101L160.771 12.5712C160.392 12.0172 159.954 11.5976 159.526 11.3123C159.113 11.0367 158.658 10.8541 158.248 10.8541V11.4541V12.0541C158.331 12.0541 158.553 12.1054 158.861 12.3108C159.154 12.5065 159.484 12.8149 159.78 13.2489L160.276 12.9101ZM158.248 11.4541H158.848V11.2721H158.248H157.648V11.4541H158.248ZM158.248 11.2721V11.8721H161.784V11.2721V10.6721H158.248V11.2721ZM161.784 11.2721H161.184V11.4541H161.784H162.384V11.2721H161.784ZM161.784 11.4541V10.8541C161.585 10.8541 161.292 10.8989 161.073 11.1386C160.848 11.3861 160.837 11.6908 160.868 11.8998C160.926 12.2905 161.185 12.7559 161.522 13.2489L162.018 12.9101L162.513 12.5712C162.353 12.3376 162.238 12.1469 162.162 11.9955C162.082 11.8376 162.06 11.7523 162.055 11.7233C162.051 11.6918 162.078 11.8178 161.96 11.9467C161.85 12.0677 161.735 12.0541 161.784 12.0541V11.4541ZM162.018 12.9101L161.521 13.2465L164.849 18.1605L165.346 17.8241L165.842 17.4876L162.514 12.5736L162.018 12.9101ZM165.346 17.8241L165.818 18.194L169.666 13.28L169.194 12.9101L168.721 12.5401L164.873 17.4541L165.346 17.8241ZM169.194 12.9101L169.671 13.2741C170.045 12.7838 170.335 12.3299 170.427 11.9534C170.473 11.7619 170.504 11.4402 170.282 11.1655C170.064 10.8955 169.748 10.8541 169.558 10.8541V11.4541V12.0541C169.614 12.0541 169.471 12.0711 169.349 11.9198C169.222 11.7636 169.273 11.6207 169.261 11.6697C169.252 11.7061 169.217 11.7982 169.122 11.9604C169.03 12.1161 168.897 12.3102 168.717 12.5461L169.194 12.9101ZM169.558 11.4541H170.158V11.2721H169.558H168.958V11.4541H169.558ZM169.558 11.2721V11.8721H171.612V11.2721V10.6721H169.558V11.2721ZM171.612 11.2721H171.012V11.4541H171.612H172.212V11.2721H171.612ZM171.612 11.4541V10.8541C171.206 10.8541 170.742 11.0332 170.31 11.302C169.861 11.581 169.387 11.9926 168.957 12.5383L169.428 12.9101L169.899 13.2818C170.248 12.8395 170.619 12.5231 170.944 12.3211C171.285 12.1089 171.523 12.0541 171.612 12.0541V11.4541ZM169.428 12.9101L168.956 12.5397L164.978 17.6097L165.45 17.9801L165.922 18.3504L169.9 13.2804L169.428 12.9101ZM165.45 17.9801L164.954 18.3176L169.608 25.1556L170.104 24.8181L170.6 24.4805L165.946 17.6425L165.45 17.9801Z" fill="white" mask="url(#path-1-outside-1_397_1357)"/>
<path d="M5.52734 12.3652L21.4952 3.43504L30.996 6.00708L8.88668 18.372L5.52734 12.3652Z" fill="white"/>
<path d="M4.61914 23.7148L23.7251 13.0296C25.3838 12.102 27.4804 12.6946 28.4081 14.3533C29.3357 16.012 28.7431 18.1087 27.0844 19.0364L7.97847 29.7216L4.61914 23.7148Z" fill="white"/>
<path d="M14.7656 28.8838L36.8749 16.5189L40.2342 22.5256L24.2664 31.4558L14.7656 28.8838Z" fill="white"/>
</svg>
