<svg width="48" height="34" viewBox="0 0 48 34" fill="none" xmlns="http://www.w3.org/2000/svg">
<path d="M29.9031 21.8436H43.9996V25.6425C43.3824 30.581 38.0486 30.3911 35.9989 30.3911C33.2863 30.3911 33.8578 34 35.9989 34C45.0968 34 48 29.0615 48 25.6425V3.03911C48 0.607821 45.3331 0 43.9996 0H29.9031C27.16 0 26.8552 2.02607 27.0457 3.03911V18.8045C27.0457 21.3877 28.9507 21.9069 29.9031 21.8436Z" fill="white" fill-opacity="0.06"/>
<path d="M2.90313 21.8436H16.9996V25.6425C16.3824 30.581 11.0486 30.3911 8.99894 30.3911C6.28627 30.3911 6.85775 34 8.99894 34C18.0968 34 21 29.0615 21 25.6425V3.03911C21 0.607821 18.3331 0 16.9996 0H2.90313C0.160032 0 -0.144757 2.02607 0.0457357 3.03911V18.8045C0.0457357 21.3877 1.95067 21.9069 2.90313 21.8436Z" fill="white" fill-opacity="0.06"/>
</svg>
