<svg width="127" height="29" viewBox="0 0 127 29" fill="none" xmlns="http://www.w3.org/2000/svg">
<path d="M31.396 23.4181H41.188V23.8021H29.5V5.58612H31.396V23.4181ZM49.1934 8.97012C53.3934 8.97012 56.8014 12.3781 56.8014 16.5781C56.8014 20.7781 53.3934 24.1621 49.1934 24.1621C45.0174 24.1621 41.6094 20.7781 41.6094 16.5781C41.6094 12.3781 45.0174 8.97012 49.1934 8.97012ZM50.3694 23.4661C53.7054 23.4661 55.8894 20.3701 55.2414 16.5781C54.5934 12.7861 51.3774 9.71412 48.0414 9.71412C44.7054 9.71412 42.5214 12.7861 43.1694 16.5781C43.8174 20.3701 47.0334 23.4661 50.3694 23.4661ZM66.6169 8.89812C68.3929 8.89812 70.0009 9.40212 71.2729 10.2181C72.2089 9.37812 73.1449 8.89812 74.1529 8.89812L73.9369 10.1941C73.0489 10.1941 72.3289 10.2901 71.7049 10.5061C73.0729 11.5621 73.9129 13.0021 73.9129 14.6101C73.9129 17.4661 71.2249 19.8181 67.7209 20.2501C70.7209 21.4741 73.8649 22.8901 73.8649 24.8821C73.8649 27.1621 71.7769 28.8181 67.0729 28.8181C63.1849 28.8181 59.3449 27.1141 59.3449 25.0021C59.3449 23.0821 61.6009 22.5541 62.4889 22.6021C61.5769 22.8421 61.2409 23.7541 61.2409 24.5941C61.2409 27.0901 63.8569 28.4101 67.2649 28.4101C70.0969 28.4101 72.0889 26.7781 72.0889 25.2181C72.0889 22.6501 66.6409 21.4501 62.9929 19.5541C62.2009 19.2181 61.4809 18.7381 60.9049 18.1861C60.7129 17.9941 60.5209 17.7781 60.3529 17.5621C60.3529 17.5621 60.3529 17.5621 60.3529 17.5381H60.3289C59.6809 16.6741 59.2969 15.6661 59.2969 14.6101C59.2969 11.4661 62.5609 8.89812 66.6169 8.89812ZM67.7209 19.6501C70.9129 19.6501 73.0009 17.3941 72.3769 14.6101C71.7769 11.8261 68.6809 9.54612 65.4889 9.54612C62.3209 9.54612 60.2329 11.8261 60.8329 14.6101C61.4569 17.3941 64.5289 19.6501 67.7209 19.6501ZM76.6613 9.37812H78.3653V23.8021H76.6613V9.37812ZM77.3813 5.68212C76.7813 5.68212 76.3733 6.18612 76.4453 6.83412C76.5413 7.45812 77.0693 7.96212 77.6453 7.96212C78.2453 7.96212 78.6533 7.45812 78.5813 6.83412C78.5093 6.18612 77.9573 5.68212 77.3813 5.68212ZM92.9279 9.37812H93.3359L88.2479 23.2021L88.4639 23.8021H86.6399L81.3359 9.37812H83.1599L88.0319 22.6501L92.9279 9.37812ZM101.779 8.97012C105.979 8.97012 109.387 12.3781 109.387 16.5781C109.387 20.7781 105.979 24.1621 101.779 24.1621C97.6033 24.1621 94.1953 20.7781 94.1953 16.5781C94.1953 12.3781 97.6033 8.97012 101.779 8.97012ZM102.955 23.4661C106.291 23.4661 108.475 20.3701 107.827 16.5781C107.179 12.7861 103.963 9.71412 100.627 9.71412C97.2913 9.71412 95.1073 12.7861 95.7553 16.5781C96.4033 20.3701 99.6193 23.4661 102.955 23.4661ZM119.275 8.97012C122.275 8.97012 124.579 10.5061 124.579 13.7221V23.8021H122.875V13.2181C122.875 10.9621 121.939 9.37812 120.091 9.37812C118.171 9.37812 115.219 11.0821 113.587 14.5381V23.8021H111.883V9.37812H113.587V11.7061C115.267 9.97812 117.283 8.97012 119.275 8.97012Z" fill="white"/>
<path d="M5.55405 19.1642H0.5V1.37012L8.67568 11.076V19.1642M8.67568 19.1642V26.3701H22.5L14.1757 19.1642H8.67568Z" stroke="white"/>
</svg>
