<svg width="103" height="23" viewBox="0 0 103 23" fill="none" xmlns="http://www.w3.org/2000/svg">
<mask id="path-1-outside-1_397_1352" maskUnits="userSpaceOnUse" x="-0.25" y="-0.290039" width="103" height="23" fill="black">
<rect fill="white" x="-0.25" y="-0.290039" width="103" height="23"/>
<path d="M16.25 19.31V0.49996H16.49V21.71H16.25L0.77 2.89996V21.71H0.5V0.49996H0.77L16.25 19.31ZM25.3502 5.53996C21.4202 5.53996 20.1302 8.50996 20.0702 11.66H29.8802C29.8202 7.00996 27.4802 5.53996 25.3502 5.53996ZM26.4002 21.23C28.8902 21.23 30.6002 19.64 31.2602 17.27H31.6202C30.9602 19.91 29.0402 21.95 25.8602 21.95C21.2402 21.95 18.6902 17.72 18.6902 13.61C18.6902 9.52996 20.7602 5.29996 25.3502 5.29996C29.1902 5.29996 31.5002 8.50996 31.5002 11.9H20.0402C20.0402 12.83 20.1302 13.73 20.2802 14.6C20.9102 18.2 23.2502 21.23 26.4002 21.23ZM47.2872 21.71H45.6672L39.3372 13.64L33.0072 21.71H32.6772L39.1872 13.43L32.9772 5.53996H34.5972L40.2972 12.8L46.0272 5.53996H46.3272L40.4472 13.01L47.2872 21.71ZM56.0565 19.85L62.0865 5.53996H62.3565L55.5465 21.71H55.4565L48.6465 5.53996H49.9965L56.0565 19.85ZM69.9045 5.29996C74.5245 5.29996 77.0745 9.52996 77.0745 13.61C77.0745 17.72 74.5245 21.95 69.9045 21.95C65.3145 21.95 62.7645 17.72 62.7645 13.61C62.7645 9.52996 65.3145 5.29996 69.9045 5.29996ZM71.3145 21.62C74.8845 20.99 76.1745 16.58 75.4845 12.65C74.8545 9.01996 72.4545 5.56996 69.2745 5.56996C69.0345 5.56996 68.7645 5.56996 68.4945 5.62996C64.9245 6.25996 63.6645 10.67 64.3545 14.6C64.9845 18.23 67.3545 21.68 70.5345 21.68C70.7745 21.68 71.0445 21.68 71.3145 21.62ZM86.2595 5.29996C89.3795 5.29996 89.2895 7.57996 87.6095 9.31996H87.3995C88.0895 7.57996 87.1595 6.25996 85.5395 6.25996C83.3195 6.25996 81.4895 9.25996 80.5295 11.39V21.71H79.2695V5.53996H79.3295L80.5295 6.04996V10.76C81.4595 8.47996 83.3495 5.29996 86.2595 5.29996ZM100.988 18.83V10.67C97.628 13.7 90.758 12.74 90.758 17.33C90.758 19.76 92.768 21.71 95.378 21.71C97.388 21.71 99.938 20.33 100.988 18.83ZM96.608 5.29996C101.198 5.29996 102.248 7.78996 102.248 9.82996V21.71H102.188L100.988 21.2V19.16C100.088 20.39 97.778 21.95 94.898 21.95C91.598 21.95 89.198 20.24 89.198 17.6C89.198 12.35 97.418 13.43 100.988 10.43V9.82996C100.988 7.87996 100.238 5.74996 96.608 5.74996C93.488 5.74996 92.288 8.20996 91.718 9.76996L91.208 7.63996C92.018 6.49996 94.328 5.29996 96.608 5.29996Z"/>
</mask>
<path d="M16.25 19.31V0.49996H16.49V21.71H16.25L0.77 2.89996V21.71H0.5V0.49996H0.77L16.25 19.31ZM25.3502 5.53996C21.4202 5.53996 20.1302 8.50996 20.0702 11.66H29.8802C29.8202 7.00996 27.4802 5.53996 25.3502 5.53996ZM26.4002 21.23C28.8902 21.23 30.6002 19.64 31.2602 17.27H31.6202C30.9602 19.91 29.0402 21.95 25.8602 21.95C21.2402 21.95 18.6902 17.72 18.6902 13.61C18.6902 9.52996 20.7602 5.29996 25.3502 5.29996C29.1902 5.29996 31.5002 8.50996 31.5002 11.9H20.0402C20.0402 12.83 20.1302 13.73 20.2802 14.6C20.9102 18.2 23.2502 21.23 26.4002 21.23ZM47.2872 21.71H45.6672L39.3372 13.64L33.0072 21.71H32.6772L39.1872 13.43L32.9772 5.53996H34.5972L40.2972 12.8L46.0272 5.53996H46.3272L40.4472 13.01L47.2872 21.71ZM56.0565 19.85L62.0865 5.53996H62.3565L55.5465 21.71H55.4565L48.6465 5.53996H49.9965L56.0565 19.85ZM69.9045 5.29996C74.5245 5.29996 77.0745 9.52996 77.0745 13.61C77.0745 17.72 74.5245 21.95 69.9045 21.95C65.3145 21.95 62.7645 17.72 62.7645 13.61C62.7645 9.52996 65.3145 5.29996 69.9045 5.29996ZM71.3145 21.62C74.8845 20.99 76.1745 16.58 75.4845 12.65C74.8545 9.01996 72.4545 5.56996 69.2745 5.56996C69.0345 5.56996 68.7645 5.56996 68.4945 5.62996C64.9245 6.25996 63.6645 10.67 64.3545 14.6C64.9845 18.23 67.3545 21.68 70.5345 21.68C70.7745 21.68 71.0445 21.68 71.3145 21.62ZM86.2595 5.29996C89.3795 5.29996 89.2895 7.57996 87.6095 9.31996H87.3995C88.0895 7.57996 87.1595 6.25996 85.5395 6.25996C83.3195 6.25996 81.4895 9.25996 80.5295 11.39V21.71H79.2695V5.53996H79.3295L80.5295 6.04996V10.76C81.4595 8.47996 83.3495 5.29996 86.2595 5.29996ZM100.988 18.83V10.67C97.628 13.7 90.758 12.74 90.758 17.33C90.758 19.76 92.768 21.71 95.378 21.71C97.388 21.71 99.938 20.33 100.988 18.83ZM96.608 5.29996C101.198 5.29996 102.248 7.78996 102.248 9.82996V21.71H102.188L100.988 21.2V19.16C100.088 20.39 97.778 21.95 94.898 21.95C91.598 21.95 89.198 20.24 89.198 17.6C89.198 12.35 97.418 13.43 100.988 10.43V9.82996C100.988 7.87996 100.238 5.74996 96.608 5.74996C93.488 5.74996 92.288 8.20996 91.718 9.76996L91.208 7.63996C92.018 6.49996 94.328 5.29996 96.608 5.29996Z" fill="white"/>
<path d="M16.25 19.31L15.8639 19.6277L16.75 20.7044V19.31H16.25ZM16.25 0.49996V-4.00543e-05H15.75V0.49996H16.25ZM16.49 0.49996H16.99V-4.00543e-05H16.49V0.49996ZM16.49 21.71V22.21H16.99V21.71H16.49ZM16.25 21.71L15.8639 22.0277L16.0139 22.21H16.25V21.71ZM0.77 2.89996L1.15607 2.58224L0.27 1.50556V2.89996H0.77ZM0.77 21.71V22.21H1.27V21.71H0.77ZM0.5 21.71H0V22.21H0.5V21.71ZM0.5 0.49996V-4.00543e-05H0V0.49996H0.5ZM0.77 0.49996L1.15607 0.182236L1.00606 -4.00543e-05H0.77V0.49996ZM16.25 19.31H16.75V0.49996H16.25H15.75V19.31H16.25ZM16.25 0.49996V0.99996H16.49V0.49996V-4.00543e-05H16.25V0.49996ZM16.49 0.49996H15.99V21.71H16.49H16.99V0.49996H16.49ZM16.49 21.71V21.21H16.25V21.71V22.21H16.49V21.71ZM16.25 21.71L16.6361 21.3922L1.15607 2.58224L0.77 2.89996L0.383928 3.21768L15.8639 22.0277L16.25 21.71ZM0.77 2.89996H0.27V21.71H0.77H1.27V2.89996H0.77ZM0.77 21.71V21.21H0.5V21.71V22.21H0.77V21.71ZM0.5 21.71H1V0.49996H0.5H0V21.71H0.5ZM0.5 0.49996V0.99996H0.77V0.49996V-4.00543e-05H0.5V0.49996ZM0.77 0.49996L0.383928 0.817684L15.8639 19.6277L16.25 19.31L16.6361 18.9922L1.15607 0.182236L0.77 0.49996ZM20.0702 11.66L19.5703 11.6504L19.5606 12.16H20.0702V11.66ZM29.8802 11.66V12.16H30.3867L30.3802 11.6535L29.8802 11.66ZM31.2602 17.27V16.77H30.8804L30.7786 17.1358L31.2602 17.27ZM31.6202 17.27L32.1053 17.3912L32.2606 16.77H31.6202V17.27ZM31.5002 11.9V12.4H32.0002V11.9H31.5002ZM20.0402 11.9V11.4H19.5402V11.9H20.0402ZM20.2802 14.6L19.7875 14.6849L19.7877 14.6862L20.2802 14.6ZM25.3502 5.53996V5.03996C23.2402 5.03996 21.7777 5.84743 20.8538 7.12582C19.9493 8.37713 19.6013 10.0227 19.5703 11.6504L20.0702 11.66L20.5701 11.6695C20.5991 10.1472 20.9261 8.73279 21.6642 7.7116C22.3827 6.71749 23.5302 6.03996 25.3502 6.03996V5.53996ZM20.0702 11.66V12.16H29.8802V11.66V11.16H20.0702V11.66ZM29.8802 11.66L30.3802 11.6535C30.3492 9.24935 29.7273 7.58698 28.7622 6.52068C27.7932 5.45009 26.5316 5.03996 25.3502 5.03996V5.53996V6.03996C26.2988 6.03996 27.2723 6.36483 28.0208 7.19174C28.7731 8.02294 29.3513 9.42057 29.3803 11.6664L29.8802 11.66ZM26.4002 21.23V21.73C29.1566 21.73 31.0337 19.9471 31.7419 17.4041L31.2602 17.27L30.7786 17.1358C30.1668 19.3328 28.6239 20.73 26.4002 20.73V21.23ZM31.2602 17.27V17.77H31.6202V17.27V16.77H31.2602V17.27ZM31.6202 17.27L31.1352 17.1487C30.825 18.3895 30.2253 19.4631 29.356 20.2237C28.4923 20.9794 27.3361 21.45 25.8602 21.45V21.95V22.45C27.5644 22.45 28.9582 21.9005 30.0145 20.9762C31.0652 20.0569 31.7555 18.7904 32.1053 17.3912L31.6202 17.27ZM25.8602 21.95V21.45C23.721 21.45 22.0688 20.4774 20.9383 19.0154C19.7993 17.5425 19.1902 15.5687 19.1902 13.61H18.6902H18.1902C18.1902 15.7612 18.8561 17.9574 20.1472 19.6271C21.4467 21.3075 23.3795 22.45 25.8602 22.45V21.95ZM18.6902 13.61H19.1902C19.1902 11.645 19.6902 9.67448 20.7093 8.21064C21.716 6.7647 23.2338 5.79996 25.3502 5.79996V5.29996V4.79996C22.8767 4.79996 21.0645 5.95022 19.8886 7.63928C18.7252 9.31044 18.1902 11.495 18.1902 13.61H18.6902ZM25.3502 5.29996V5.79996C28.8472 5.79996 31.0002 8.71406 31.0002 11.9H31.5002H32.0002C32.0002 8.30586 29.5333 4.79996 25.3502 4.79996V5.29996ZM31.5002 11.9V11.4H20.0402V11.9V12.4H31.5002V11.9ZM20.0402 11.9H19.5402C19.5402 12.8623 19.6334 13.791 19.7875 14.6849L20.2802 14.6L20.773 14.515C20.6271 13.6689 20.5402 12.7976 20.5402 11.9H20.0402ZM20.2802 14.6L19.7877 14.6862C20.4347 18.383 22.8869 21.73 26.4002 21.73V21.23V20.73C23.6135 20.73 21.3858 18.0169 20.7727 14.5138L20.2802 14.6ZM47.2872 21.71V22.21H48.3163L47.6803 21.4009L47.2872 21.71ZM45.6672 21.71L45.2738 22.0185L45.4239 22.21H45.6672V21.71ZM39.3372 13.64L39.7306 13.3314L39.3372 12.8298L38.9438 13.3314L39.3372 13.64ZM33.0072 21.71V22.21H33.2505L33.4006 22.0185L33.0072 21.71ZM32.6772 21.71L32.2841 21.4009L31.648 22.21H32.6772V21.71ZM39.1872 13.43L39.5802 13.739L39.8234 13.4298L39.5801 13.1207L39.1872 13.43ZM32.9772 5.53996V5.03996H31.9474L32.5843 5.8492L32.9772 5.53996ZM34.5972 5.53996L34.9905 5.23119L34.8403 5.03996H34.5972V5.53996ZM40.2972 12.8L39.9039 13.1087L40.2962 13.6083L40.6897 13.1097L40.2972 12.8ZM46.0272 5.53996V5.03996H45.7848L45.6347 5.23019L46.0272 5.53996ZM46.3272 5.53996L46.7201 5.84922L47.3571 5.03996H46.3272V5.53996ZM40.4472 13.01L40.0543 12.7007L39.811 13.0098L40.0541 13.319L40.4472 13.01ZM47.2872 21.71V21.21H45.6672V21.71V22.21H47.2872V21.71ZM45.6672 21.71L46.0606 21.4014L39.7306 13.3314L39.3372 13.64L38.9438 13.9485L45.2738 22.0185L45.6672 21.71ZM39.3372 13.64L38.9438 13.3314L32.6138 21.4014L33.0072 21.71L33.4006 22.0185L39.7306 13.9485L39.3372 13.64ZM33.0072 21.71V21.21H32.6772V21.71V22.21H33.0072V21.71ZM32.6772 21.71L33.0702 22.019L39.5802 13.739L39.1872 13.43L38.7941 13.1209L32.2841 21.4009L32.6772 21.71ZM39.1872 13.43L39.5801 13.1207L33.3701 5.23072L32.9772 5.53996L32.5843 5.8492L38.7943 13.7392L39.1872 13.43ZM32.9772 5.53996V6.03996H34.5972V5.53996V5.03996H32.9772V5.53996ZM34.5972 5.53996L34.2039 5.84873L39.9039 13.1087L40.2972 12.8L40.6905 12.4912L34.9905 5.23119L34.5972 5.53996ZM40.2972 12.8L40.6897 13.1097L46.4197 5.84973L46.0272 5.53996L45.6347 5.23019L39.9047 12.4902L40.2972 12.8ZM46.0272 5.53996V6.03996H46.3272V5.53996V5.03996H46.0272V5.53996ZM46.3272 5.53996L45.9343 5.2307L40.0543 12.7007L40.4472 13.01L40.8401 13.3192L46.7201 5.84922L46.3272 5.53996ZM40.4472 13.01L40.0541 13.319L46.8941 22.019L47.2872 21.71L47.6803 21.4009L40.8403 12.7009L40.4472 13.01ZM56.0565 19.85L55.5961 20.0449L56.0576 21.1349L56.5173 20.0441L56.0565 19.85ZM62.0865 5.53996V5.03996H61.7546L61.6257 5.3458L62.0865 5.53996ZM62.3565 5.53996L62.8173 5.73403L63.1096 5.03996H62.3565V5.53996ZM55.5465 21.71V22.21H55.8784L56.0073 21.904L55.5465 21.71ZM55.4565 21.71L54.9957 21.904L55.1245 22.21H55.4565V21.71ZM48.6465 5.53996V5.03996H47.8934L48.1857 5.73403L48.6465 5.53996ZM49.9965 5.53996L50.4569 5.34498L50.3277 5.03996H49.9965V5.53996ZM56.0565 19.85L56.5173 20.0441L62.5472 5.73412L62.0865 5.53996L61.6257 5.3458L55.5957 19.6558L56.0565 19.85ZM62.0865 5.53996V6.03996H62.3565V5.53996V5.03996H62.0865V5.53996ZM62.3565 5.53996L61.8957 5.34589L55.0857 21.5159L55.5465 21.71L56.0073 21.904L62.8173 5.73403L62.3565 5.53996ZM55.5465 21.71V21.21H55.4565V21.71V22.21H55.5465V21.71ZM55.4565 21.71L55.9173 21.5159L49.1073 5.34589L48.6465 5.53996L48.1857 5.73403L54.9957 21.904L55.4565 21.71ZM48.6465 5.53996V6.03996H49.9965V5.53996V5.03996H48.6465V5.53996ZM49.9965 5.53996L49.5361 5.73494L55.5961 20.0449L56.0565 19.85L56.5169 19.655L50.4569 5.34498L49.9965 5.53996ZM71.3145 21.62L71.2276 21.1276L71.2167 21.1295L71.206 21.1319L71.3145 21.62ZM75.4845 12.65L74.9918 12.7355L74.992 12.7364L75.4845 12.65ZM68.4945 5.62996L68.5813 6.12235L68.5922 6.12044L68.6029 6.11805L68.4945 5.62996ZM64.3545 14.6L64.8471 14.5145L64.8469 14.5135L64.3545 14.6ZM69.9045 5.29996V5.79996C72.0438 5.79996 73.6962 6.77264 74.8268 8.23128C75.9657 9.70068 76.5745 11.6669 76.5745 13.61H77.0745H77.5745C77.5745 11.473 76.9082 9.28424 75.6171 7.61864C74.3177 5.94228 72.3851 4.79996 69.9045 4.79996V5.29996ZM77.0745 13.61H76.5745C76.5745 15.5687 75.9653 17.5425 74.8264 19.0154C73.6959 20.4774 72.0437 21.45 69.9045 21.45V21.95V22.45C72.3852 22.45 74.318 21.3075 75.6175 19.6271C76.9086 17.9574 77.5745 15.7612 77.5745 13.61H77.0745ZM69.9045 21.95V21.45C67.7813 21.45 66.1366 20.4784 65.0092 19.0159C63.8736 17.5428 63.2645 15.5688 63.2645 13.61H62.7645H62.2645C62.2645 15.7612 62.9303 17.9571 64.2172 19.6265C65.5123 21.3065 67.4376 22.45 69.9045 22.45V21.95ZM62.7645 13.61H63.2645C63.2645 11.6669 63.8732 9.70035 65.0088 8.23068C66.1363 6.77165 67.7812 5.79996 69.9045 5.79996V5.29996V4.79996C67.4377 4.79996 65.5126 5.94327 64.2176 7.61924C62.9307 9.28457 62.2645 11.4731 62.2645 13.61H62.7645ZM71.3145 21.62L71.4013 22.1124C73.4013 21.7594 74.7323 20.3445 75.4599 18.5614C76.1843 16.7861 76.335 14.6032 75.9769 12.5635L75.4845 12.65L74.992 12.7364C75.3239 14.6268 75.1746 16.6138 74.534 18.1835C73.8966 19.7455 72.7976 20.8505 71.2276 21.1276L71.3145 21.62ZM75.4845 12.65L75.9771 12.5645C75.6495 10.6771 74.861 8.82426 73.7228 7.43221C72.5844 6.03999 71.0596 5.06996 69.2745 5.06996V5.56996V6.06996C70.6693 6.06996 71.9345 6.82493 72.9486 8.06521C73.9629 9.30566 74.6894 10.9928 74.9918 12.7355L75.4845 12.65ZM69.2745 5.56996V5.06996C69.0413 5.06996 68.7177 5.06816 68.386 5.14187L68.4945 5.62996L68.6029 6.11805C68.8112 6.07176 69.0276 6.06996 69.2745 6.06996V5.56996ZM68.4945 5.62996L68.4076 5.13757C66.4066 5.49067 65.0831 6.90676 64.3633 8.69033C63.6468 10.4657 63.5041 12.6481 63.862 14.6864L64.3545 14.6L64.8469 14.5135C64.5148 12.6218 64.6571 10.6343 65.2906 9.06459C65.9208 7.50315 67.0123 6.39925 68.5813 6.12235L68.4945 5.62996ZM64.3545 14.6L63.8618 14.6855C64.1891 16.5714 64.9695 18.424 66.1 19.8164C67.231 21.2092 68.7486 22.18 70.5345 22.18V21.68V21.18C69.1403 21.18 67.8829 20.4257 66.8764 19.186C65.8694 17.9459 65.1498 16.2585 64.8471 14.5145L64.3545 14.6ZM70.5345 21.68V22.18C70.7676 22.18 71.0912 22.1818 71.4229 22.1081L71.3145 21.62L71.206 21.1319C70.9977 21.1782 70.7813 21.18 70.5345 21.18V21.68ZM87.6095 9.31996V9.81996H87.8218L87.9692 9.66726L87.6095 9.31996ZM87.3995 9.31996L86.9347 9.13565L86.6634 9.81996H87.3995V9.31996ZM80.5295 11.39L80.0737 11.1845L80.0295 11.2825V11.39H80.5295ZM80.5295 21.71V22.21H81.0295V21.71H80.5295ZM79.2695 21.71H78.7695V22.21H79.2695V21.71ZM79.2695 5.53996V5.03996H78.7695V5.53996H79.2695ZM79.3295 5.53996L79.5251 5.07979L79.4314 5.03996H79.3295V5.53996ZM80.5295 6.04996H81.0295V5.71918L80.7251 5.5898L80.5295 6.04996ZM80.5295 10.76H80.0295L80.9925 10.9488L80.5295 10.76ZM86.2595 5.29996V5.79996C86.9855 5.79996 87.4663 5.9336 87.7669 6.11285C88.0534 6.28368 88.1941 6.50469 88.2442 6.75552C88.3541 7.30466 88.0448 8.14932 87.2498 8.97266L87.6095 9.31996L87.9692 9.66726C88.8543 8.7506 89.43 7.58526 89.2248 6.5594C89.1175 6.02273 88.8007 5.56499 88.279 5.25395C87.7715 4.95132 87.0936 4.79996 86.2595 4.79996V5.29996ZM87.6095 9.31996V8.81996H87.3995V9.31996V9.81996H87.6095V9.31996ZM87.3995 9.31996L87.8643 9.50427C88.2531 8.5238 88.2126 7.58329 87.7575 6.86884C87.3007 6.15176 86.4879 5.75996 85.5395 5.75996V6.25996V6.75996C86.2112 6.75996 86.6733 7.02816 86.9141 7.40608C87.1565 7.78663 87.2359 8.37612 86.9347 9.13565L87.3995 9.31996ZM85.5395 6.25996V5.75996C84.2016 5.75996 83.0613 6.65613 82.1794 7.70432C81.2831 8.76969 80.5634 10.0981 80.0737 11.1845L80.5295 11.39L80.9854 11.5954C81.4557 10.5519 82.131 9.31524 82.9446 8.3481C83.7728 7.36379 84.6575 6.75996 85.5395 6.75996V6.25996ZM80.5295 11.39H80.0295V21.71H80.5295H81.0295V11.39H80.5295ZM80.5295 21.71V21.21H79.2695V21.71V22.21H80.5295V21.71ZM79.2695 21.71H79.7695V5.53996H79.2695H78.7695V21.71H79.2695ZM79.2695 5.53996V6.03996H79.3295V5.53996V5.03996H79.2695V5.53996ZM79.3295 5.53996L79.134 6.00012L80.334 6.51013L80.5295 6.04996L80.7251 5.5898L79.5251 5.07979L79.3295 5.53996ZM80.5295 6.04996H80.0295V10.76H80.5295H81.0295V6.04996H80.5295ZM80.5295 10.76L80.9925 10.9488C81.4465 9.83573 82.126 8.52733 83.027 7.50568C83.9284 6.48368 85.0031 5.79996 86.2595 5.79996V5.29996V4.79996C84.606 4.79996 83.2807 5.70624 82.277 6.84424C81.2731 7.98259 80.5425 9.40419 80.0666 10.5711L80.5295 10.76ZM100.988 18.83L101.398 19.1167L101.488 18.9876V18.83H100.988ZM100.988 10.67H101.488V9.54579L100.653 10.2986L100.988 10.67ZM102.248 21.71V22.21H102.748V21.71H102.248ZM102.188 21.71L101.992 22.1701L102.086 22.21H102.188V21.71ZM100.988 21.2H100.488V21.5307L100.792 21.6601L100.988 21.2ZM100.988 19.16H101.488V17.6299L100.585 18.8647L100.988 19.16ZM100.988 10.43L101.31 10.8127L101.488 10.6629V10.43H100.988ZM91.718 9.76996L91.2318 9.88639L91.6182 11.5002L92.1877 9.94156L91.718 9.76996ZM91.208 7.63996L90.8005 7.35036L90.6689 7.53551L90.7218 7.75639L91.208 7.63996ZM100.988 18.83H101.488V10.67H100.988H100.488V18.83H100.988ZM100.988 10.67L100.653 10.2986C99.883 10.9932 98.8933 11.4746 97.8006 11.8737C96.6776 12.2839 95.5816 12.5651 94.4549 12.9406C93.3778 13.2997 92.3327 13.7294 91.5568 14.4009C90.7537 15.0959 90.258 16.0331 90.258 17.33H90.758H91.258C91.258 16.3318 91.6211 15.6677 92.2112 15.1571C92.8284 14.623 93.7108 14.2428 94.7712 13.8893C95.782 13.5524 97.0335 13.2185 98.1436 12.8131C99.2841 12.3965 100.413 11.8617 101.323 11.0413L100.988 10.67ZM90.758 17.33H90.258C90.258 20.0577 92.514 22.21 95.378 22.21V21.71V21.21C93.0221 21.21 91.258 19.4623 91.258 17.33H90.758ZM95.378 21.71V22.21C96.4866 22.21 97.7066 21.8332 98.7744 21.2757C99.841 20.7189 100.813 19.9518 101.398 19.1167L100.988 18.83L100.578 18.5432C100.113 19.2081 99.2851 19.881 98.3117 20.3892C97.3395 20.8968 96.2795 21.21 95.378 21.21V21.71ZM96.608 5.29996V5.79996C98.8146 5.79996 100.074 6.39666 100.787 7.1449C101.506 7.89857 101.748 8.8883 101.748 9.82996H102.248H102.748C102.748 8.73162 102.466 7.45635 101.511 6.45502C100.552 5.44826 98.9915 4.79996 96.608 4.79996V5.29996ZM102.248 9.82996H101.748V21.71H102.248H102.748V9.82996H102.248ZM102.248 21.71V21.21H102.188V21.71V22.21H102.248V21.71ZM102.188 21.71L102.384 21.2498L101.184 20.7398L100.988 21.2L100.792 21.6601L101.992 22.1701L102.188 21.71ZM100.988 21.2H101.488V19.16H100.988H100.488V21.2H100.988ZM100.988 19.16L100.585 18.8647C99.775 19.9711 97.6124 21.45 94.898 21.45V21.95V22.45C97.9436 22.45 100.401 20.8089 101.392 19.4552L100.988 19.16ZM94.898 21.95V21.45C93.3289 21.45 92.0167 21.0429 91.1101 20.3646C90.2144 19.6945 89.698 18.751 89.698 17.6H89.198H88.698C88.698 19.0889 89.3817 20.3204 90.511 21.1653C91.6294 22.0021 93.1672 22.45 94.898 22.45V21.95ZM89.198 17.6H89.698C89.698 16.4445 90.139 15.6661 90.857 15.0719C91.6024 14.455 92.6598 14.027 93.8999 13.6495C94.5152 13.4623 95.159 13.292 95.818 13.1157C96.4733 12.9404 97.1422 12.7595 97.7906 12.5543C99.0803 12.1463 100.34 11.6275 101.31 10.8127L100.988 10.43L100.666 10.0472C99.8509 10.7324 98.7446 11.2036 97.4889 11.6009C96.8647 11.7984 96.2161 11.974 95.5595 12.1497C94.9066 12.3243 94.244 12.4995 93.6087 12.6929C92.3476 13.0767 91.1268 13.5505 90.2194 14.3015C89.2846 15.0751 88.698 16.1304 88.698 17.6H89.198ZM100.988 10.43H101.488V9.82996H100.988H100.488V10.43H100.988ZM100.988 9.82996H101.488C101.488 8.80453 101.293 7.64632 100.545 6.74027C99.781 5.81572 98.5228 5.24996 96.608 5.24996V5.74996V6.24996C98.3233 6.24996 99.2551 6.7492 99.7738 7.37715C100.308 8.0236 100.488 8.90539 100.488 9.82996H100.988ZM96.608 5.74996V5.24996C94.8966 5.24996 93.6886 5.93226 92.8425 6.83254C92.0111 7.71715 91.5406 8.7988 91.2484 9.59836L91.718 9.76996L92.1877 9.94156C92.4655 9.18112 92.88 8.25277 93.5711 7.51738C94.2475 6.79766 95.1995 6.24996 96.608 6.24996V5.74996ZM91.718 9.76996L92.2043 9.65353L91.6943 7.52353L91.208 7.63996L90.7218 7.75639L91.2318 9.88639L91.718 9.76996ZM91.208 7.63996L91.6156 7.92956C91.9514 7.45706 92.646 6.91899 93.5654 6.49685C94.475 6.07922 95.5515 5.79996 96.608 5.79996V5.29996V4.79996C95.3846 4.79996 94.1661 5.1207 93.1482 5.58807C92.1401 6.05093 91.2747 6.68286 90.8005 7.35036L91.208 7.63996Z" fill="white" mask="url(#path-1-outside-1_397_1352)"/>
</svg>
