<svg width="82" height="23" viewBox="0 0 82 23" fill="none" xmlns="http://www.w3.org/2000/svg">
<mask id="path-1-outside-1_397_1353" maskUnits="userSpaceOnUse" x="-0.376953" y="-0.333008" width="83" height="23" fill="black">
<rect fill="white" x="-0.376953" y="-0.333008" width="83" height="23"/>
<path d="M9.39355 21.667H9.08594L1.32227 1.0127L0.208984 0.5H4.10547L2.97754 1.0127L9.9209 19.4551L16.8496 1.0127L15.7363 0.5H18.2705L17.1719 1.0127L9.39355 21.667ZM25.7852 21.8428C24.7012 21.8428 23.6367 21.6377 22.5918 21.2275C21.5469 20.8076 20.6045 20.1826 19.7646 19.3525C18.9248 18.5127 18.2949 17.5703 17.875 16.5254C17.4648 15.4805 17.2598 14.4111 17.2598 13.3174C17.2598 12.2236 17.4648 11.1543 17.875 10.1094C18.2949 9.06445 18.9248 8.12695 19.7646 7.29688C20.6045 6.45703 21.5469 5.82715 22.5918 5.40723C23.6367 4.9873 24.7061 4.77734 25.7998 4.77734C26.7275 4.77734 27.6406 4.92871 28.5391 5.23145C29.0859 5.43652 29.4521 5.59766 29.6377 5.71484C30.8291 6.4668 31.5664 7.57031 31.8496 9.02539C31.957 9.58203 32.0107 10.0117 32.0107 10.3145V10.6074H18.3291C18.2705 10.9883 18.2412 11.374 18.2412 11.7646C18.2412 12.8291 18.4707 13.9131 18.9297 15.0166C19.3984 16.1104 20.0918 17.1211 21.0098 18.0488C21.9375 18.9668 22.9482 19.6602 24.042 20.1289C25.1455 20.5977 26.2344 20.832 27.3086 20.832C28.1289 20.832 28.9102 20.6953 29.6523 20.4219C30.7559 20.002 31.6445 19.2842 32.3184 18.2686L32.5967 18.4736C32.3721 18.7764 32.1133 19.0693 31.8203 19.3525C30.9805 20.1826 30.0381 20.8076 28.9932 21.2275C27.958 21.6377 26.8887 21.8428 25.7852 21.8428ZM29.8867 10.3145L29.9014 10.0361C29.9014 9.33301 29.7744 8.75195 29.5205 8.29297C29.2666 7.82422 28.9736 7.45312 28.6416 7.17969C28.3193 6.90625 28.0264 6.71094 27.7627 6.59375L27.3818 6.41797C26.3076 5.97852 25.2529 5.75879 24.2178 5.75879C23.0654 5.75879 21.9961 6.03711 21.0098 6.59375C20.2871 7.11133 19.6377 7.76074 19.0615 8.54199C18.749 9.08887 18.5244 9.67969 18.3877 10.3145H29.8867ZM39.0273 21.667H35.248L36.3613 21.1543V1.02734L35.248 0.5H39.0273L37.9141 1.02734V21.1543L39.0273 21.667ZM45.1211 21.6963C44.9258 21.6963 44.7354 21.6572 44.5498 21.5791C43.6123 21.0811 43.0947 20.0215 42.9971 18.4004V5.31934H41.6641V5.02637C42.1816 5.02637 42.6211 4.875 42.9824 4.57227C43.6074 4.06445 44.0713 3.36621 44.374 2.47754C44.4814 2.16504 44.54 1.98437 44.5498 1.93555V5.02637H47.2744V5.31934H44.5498V19.2793C44.5498 20.002 44.6963 20.5586 44.9893 20.9492C45.1162 21.1152 45.292 21.1982 45.5166 21.1982C45.6045 21.1982 45.6973 21.1885 45.7949 21.1689C46.0781 20.9736 46.3223 20.666 46.5273 20.2461L46.791 20.3779C46.3418 21.2568 45.7852 21.6963 45.1211 21.6963ZM53.7051 21.667H49.9258L51.0391 21.1396V5.55371L49.9258 5.02637H53.7051L52.5918 5.55371V12.292C52.748 11.4131 52.9971 10.5244 53.3389 9.62598C53.8857 8.23926 54.6182 7.16016 55.5361 6.38867C56.6494 5.4707 57.9971 5.01172 59.5791 5.01172C59.9209 5.01172 60.2334 5.06055 60.5166 5.1582L60.2529 6.97461L58.9785 6.16895L58.6562 6.0957C58.373 6.04688 58.0312 6.02246 57.6309 6.02246C57.377 6.02246 57.0938 6.05176 56.7812 6.11035C56.4785 6.15918 56.1807 6.28613 55.8877 6.49121C55.6436 6.67676 55.4141 6.88672 55.1992 7.12109C54.2715 8.18555 53.6172 9.42578 53.2363 10.8418C52.8652 12.2578 52.6504 13.5518 52.5918 14.7236V21.1396L53.7051 21.667ZM66.9619 21.667H63.168L64.2812 21.1396V5.53906L63.168 5.02637H66.9619L65.834 5.53906V21.1396L66.9619 21.667ZM65.0576 3.72266C64.7451 3.72266 64.4717 3.61035 64.2373 3.38574C64.0127 3.16113 63.9004 2.8877 63.9004 2.56543C63.9004 2.24316 64.0127 1.96973 64.2373 1.74512C64.4717 1.52051 64.7451 1.4082 65.0576 1.4082C65.3799 1.4082 65.6533 1.52051 65.8779 1.74512C66.1123 1.96973 66.2295 2.24316 66.2295 2.56543C66.2295 2.8877 66.1123 3.16113 65.8779 3.38574C65.6533 3.61035 65.3799 3.72266 65.0576 3.72266ZM81.5957 21.667H77.0986L78.4756 21.1396L74.7842 14.167L71.1074 21.1396L72.4697 21.667H69.4082L70.7705 21.1396L74.623 13.8447L70.2432 5.55371L68.8809 5.04102H73.3633L72.001 5.55371L75.502 12.1895L79.0029 5.55371L77.6406 5.04102H80.6875L79.3252 5.55371L75.6631 12.4971L80.2334 21.1396L81.5957 21.667Z"/>
</mask>
<path d="M9.39355 21.667H9.08594L1.32227 1.0127L0.208984 0.5H4.10547L2.97754 1.0127L9.9209 19.4551L16.8496 1.0127L15.7363 0.5H18.2705L17.1719 1.0127L9.39355 21.667ZM25.7852 21.8428C24.7012 21.8428 23.6367 21.6377 22.5918 21.2275C21.5469 20.8076 20.6045 20.1826 19.7646 19.3525C18.9248 18.5127 18.2949 17.5703 17.875 16.5254C17.4648 15.4805 17.2598 14.4111 17.2598 13.3174C17.2598 12.2236 17.4648 11.1543 17.875 10.1094C18.2949 9.06445 18.9248 8.12695 19.7646 7.29688C20.6045 6.45703 21.5469 5.82715 22.5918 5.40723C23.6367 4.9873 24.7061 4.77734 25.7998 4.77734C26.7275 4.77734 27.6406 4.92871 28.5391 5.23145C29.0859 5.43652 29.4521 5.59766 29.6377 5.71484C30.8291 6.4668 31.5664 7.57031 31.8496 9.02539C31.957 9.58203 32.0107 10.0117 32.0107 10.3145V10.6074H18.3291C18.2705 10.9883 18.2412 11.374 18.2412 11.7646C18.2412 12.8291 18.4707 13.9131 18.9297 15.0166C19.3984 16.1104 20.0918 17.1211 21.0098 18.0488C21.9375 18.9668 22.9482 19.6602 24.042 20.1289C25.1455 20.5977 26.2344 20.832 27.3086 20.832C28.1289 20.832 28.9102 20.6953 29.6523 20.4219C30.7559 20.002 31.6445 19.2842 32.3184 18.2686L32.5967 18.4736C32.3721 18.7764 32.1133 19.0693 31.8203 19.3525C30.9805 20.1826 30.0381 20.8076 28.9932 21.2275C27.958 21.6377 26.8887 21.8428 25.7852 21.8428ZM29.8867 10.3145L29.9014 10.0361C29.9014 9.33301 29.7744 8.75195 29.5205 8.29297C29.2666 7.82422 28.9736 7.45312 28.6416 7.17969C28.3193 6.90625 28.0264 6.71094 27.7627 6.59375L27.3818 6.41797C26.3076 5.97852 25.2529 5.75879 24.2178 5.75879C23.0654 5.75879 21.9961 6.03711 21.0098 6.59375C20.2871 7.11133 19.6377 7.76074 19.0615 8.54199C18.749 9.08887 18.5244 9.67969 18.3877 10.3145H29.8867ZM39.0273 21.667H35.248L36.3613 21.1543V1.02734L35.248 0.5H39.0273L37.9141 1.02734V21.1543L39.0273 21.667ZM45.1211 21.6963C44.9258 21.6963 44.7354 21.6572 44.5498 21.5791C43.6123 21.0811 43.0947 20.0215 42.9971 18.4004V5.31934H41.6641V5.02637C42.1816 5.02637 42.6211 4.875 42.9824 4.57227C43.6074 4.06445 44.0713 3.36621 44.374 2.47754C44.4814 2.16504 44.54 1.98437 44.5498 1.93555V5.02637H47.2744V5.31934H44.5498V19.2793C44.5498 20.002 44.6963 20.5586 44.9893 20.9492C45.1162 21.1152 45.292 21.1982 45.5166 21.1982C45.6045 21.1982 45.6973 21.1885 45.7949 21.1689C46.0781 20.9736 46.3223 20.666 46.5273 20.2461L46.791 20.3779C46.3418 21.2568 45.7852 21.6963 45.1211 21.6963ZM53.7051 21.667H49.9258L51.0391 21.1396V5.55371L49.9258 5.02637H53.7051L52.5918 5.55371V12.292C52.748 11.4131 52.9971 10.5244 53.3389 9.62598C53.8857 8.23926 54.6182 7.16016 55.5361 6.38867C56.6494 5.4707 57.9971 5.01172 59.5791 5.01172C59.9209 5.01172 60.2334 5.06055 60.5166 5.1582L60.2529 6.97461L58.9785 6.16895L58.6562 6.0957C58.373 6.04688 58.0312 6.02246 57.6309 6.02246C57.377 6.02246 57.0938 6.05176 56.7812 6.11035C56.4785 6.15918 56.1807 6.28613 55.8877 6.49121C55.6436 6.67676 55.4141 6.88672 55.1992 7.12109C54.2715 8.18555 53.6172 9.42578 53.2363 10.8418C52.8652 12.2578 52.6504 13.5518 52.5918 14.7236V21.1396L53.7051 21.667ZM66.9619 21.667H63.168L64.2812 21.1396V5.53906L63.168 5.02637H66.9619L65.834 5.53906V21.1396L66.9619 21.667ZM65.0576 3.72266C64.7451 3.72266 64.4717 3.61035 64.2373 3.38574C64.0127 3.16113 63.9004 2.8877 63.9004 2.56543C63.9004 2.24316 64.0127 1.96973 64.2373 1.74512C64.4717 1.52051 64.7451 1.4082 65.0576 1.4082C65.3799 1.4082 65.6533 1.52051 65.8779 1.74512C66.1123 1.96973 66.2295 2.24316 66.2295 2.56543C66.2295 2.8877 66.1123 3.16113 65.8779 3.38574C65.6533 3.61035 65.3799 3.72266 65.0576 3.72266ZM81.5957 21.667H77.0986L78.4756 21.1396L74.7842 14.167L71.1074 21.1396L72.4697 21.667H69.4082L70.7705 21.1396L74.623 13.8447L70.2432 5.55371L68.8809 5.04102H73.3633L72.001 5.55371L75.502 12.1895L79.0029 5.55371L77.6406 5.04102H80.6875L79.3252 5.55371L75.6631 12.4971L80.2334 21.1396L81.5957 21.667Z" fill="white"/>
<path d="M9.39355 21.667V22.167H9.73954L9.86147 21.8432L9.39355 21.667ZM9.08594 21.667L8.61791 21.8429L8.73973 22.167H9.08594V21.667ZM1.32227 1.0127L1.79029 0.836769L1.71801 0.644474L1.53142 0.55854L1.32227 1.0127ZM0.208984 0.5V0L-0.000165701 0.954155L0.208984 0.5ZM4.10547 0.5L4.31237 0.955183L4.10547 0V0.5ZM2.97754 1.0127L2.77064 0.557512L2.34478 0.751083L2.5096 1.18887L2.97754 1.0127ZM9.9209 19.4551L9.45296 19.6313L9.92139 20.8755L10.389 19.6309L9.9209 19.4551ZM16.8496 1.0127L17.3177 1.18854L17.4813 0.753111L17.0588 0.55854L16.8496 1.0127ZM15.7363 0.5V0L15.5272 0.954155L15.7363 0.5ZM18.2705 0.5L18.482 0.953091L18.2705 0V0.5ZM17.1719 1.0127L16.9604 0.559605L16.7758 0.645779L16.704 0.836479L17.1719 1.0127ZM9.39355 21.667V21.167H9.08594V21.667V22.167H9.39355V21.667ZM9.08594 21.667L9.55397 21.4911L1.79029 0.836769L1.32227 1.0127L0.854238 1.18862L8.61791 21.8429L9.08594 21.667ZM1.32227 1.0127L1.53142 0.55854L0.418134 0.045845L0.208984 0.5L-0.000165701 0.954155L1.11312 1.46685L1.32227 1.0127ZM0.208984 0.5V1H4.10547V0.5V0H0.208984V0.5ZM4.10547 0.5L3.89857 0.044817L2.77064 0.557512L2.97754 1.0127L3.18444 1.46788L4.31237 0.955183L4.10547 0.5ZM2.97754 1.0127L2.5096 1.18887L9.45296 19.6313L9.9209 19.4551L10.3888 19.2789L3.44547 0.836523L2.97754 1.0127ZM9.9209 19.4551L10.389 19.6309L17.3177 1.18854L16.8496 1.0127L16.3816 0.836849L9.45284 19.2792L9.9209 19.4551ZM16.8496 1.0127L17.0588 0.55854L15.9455 0.045845L15.7363 0.5L15.5272 0.954155L16.6405 1.46685L16.8496 1.0127ZM15.7363 0.5V1H18.2705V0.5V0H15.7363V0.5ZM18.2705 0.5L18.0591 0.0469093L16.9604 0.559605L17.1719 1.0127L17.3833 1.46579L18.482 0.953091L18.2705 0.5ZM17.1719 1.0127L16.704 0.836479L8.92564 21.4908L9.39355 21.667L9.86147 21.8432L17.6398 1.18891L17.1719 1.0127ZM22.5918 21.2275L22.4053 21.6915L22.4091 21.693L22.5918 21.2275ZM19.7646 19.3525L19.4111 19.7061L19.4132 19.7082L19.7646 19.3525ZM17.875 16.5254L17.4096 16.7081L17.4111 16.7118L17.875 16.5254ZM17.875 10.1094L17.411 9.92293L17.4096 9.92668L17.875 10.1094ZM19.7646 7.29688L20.1161 7.6525L20.1182 7.65043L19.7646 7.29688ZM22.5918 5.40723L22.4054 4.94329L22.5918 5.40723ZM28.5391 5.23145L28.7146 4.76328L28.7067 4.76032L28.6987 4.75762L28.5391 5.23145ZM29.6377 5.71484L29.3707 6.13759L29.3708 6.13767L29.6377 5.71484ZM31.8496 9.02539L32.3406 8.93065L32.3404 8.92987L31.8496 9.02539ZM32.0107 10.6074V11.1074H32.5107V10.6074H32.0107ZM18.3291 10.6074V10.1074H17.9001L17.8349 10.5314L18.3291 10.6074ZM18.9297 15.0166L18.468 15.2086L18.4701 15.2136L18.9297 15.0166ZM21.0098 18.0488L20.6543 18.4005L20.6581 18.4042L21.0098 18.0488ZM24.042 20.1289L23.845 20.5885L23.8465 20.5891L24.042 20.1289ZM29.6523 20.4219L29.8252 20.8911L29.8302 20.8892L29.6523 20.4219ZM32.3184 18.2686L32.615 17.866L32.1921 17.5544L31.9017 17.9921L32.3184 18.2686ZM32.5967 18.4736L32.9982 18.7716L33.2971 18.3687L32.8933 18.0711L32.5967 18.4736ZM31.8203 19.3525L31.4728 18.993L31.4688 18.9969L31.8203 19.3525ZM28.9932 21.2275L29.1773 21.6924L29.1796 21.6915L28.9932 21.2275ZM29.8867 10.3145V10.8145H30.3611L30.386 10.3407L29.8867 10.3145ZM29.9014 10.0361L30.4007 10.0624L30.4014 10.0493V10.0361H29.9014ZM29.5205 8.29297L29.0808 8.53112L29.083 8.535L29.5205 8.29297ZM28.6416 7.17969L28.3181 7.56098L28.3237 7.56565L28.6416 7.17969ZM27.7627 6.59375L27.5531 7.04778L27.5596 7.05066L27.7627 6.59375ZM27.3818 6.41797L27.5914 5.96399L27.5814 5.95937L27.5712 5.9552L27.3818 6.41797ZM21.0098 6.59375L20.764 6.15831L20.7405 6.17156L20.7186 6.18725L21.0098 6.59375ZM19.0615 8.54199L18.6591 8.24522L18.6418 8.26865L18.6274 8.29392L19.0615 8.54199ZM18.3877 10.3145L17.8989 10.2092L17.7685 10.8145H18.3877V10.3145ZM25.7852 21.8428V21.3428C24.7659 21.3428 23.7633 21.1502 22.7745 20.7621L22.5918 21.2275L22.4091 21.693C23.5101 22.1251 24.6364 22.3428 25.7852 22.3428V21.8428ZM22.5918 21.2275L22.7782 20.7636C21.798 20.3697 20.911 19.7826 20.1161 18.9969L19.7646 19.3525L19.4132 19.7082C20.2979 20.5826 21.2958 21.2456 22.4054 21.6915L22.5918 21.2275ZM19.7646 19.3525L20.1182 18.999C19.3234 18.2042 18.7323 17.3179 18.3389 16.3389L17.875 16.5254L17.4111 16.7118C17.8575 17.8227 18.5262 18.8212 19.4111 19.7061L19.7646 19.3525ZM17.875 16.5254L18.3404 16.3427C17.9525 15.3544 17.7598 14.347 17.7598 13.3174H17.2598H16.7598C16.7598 14.4753 16.9772 15.6065 17.4096 16.7081L17.875 16.5254ZM17.2598 13.3174H17.7598C17.7598 12.2878 17.9525 11.2804 18.3404 10.2921L17.875 10.1094L17.4096 9.92668C16.9772 11.0282 16.7598 12.1595 16.7598 13.3174H17.2598ZM17.875 10.1094L18.3389 10.2958C18.7321 9.31746 19.3225 8.43685 20.1161 7.65249L19.7646 7.29688L19.4132 6.94126C18.5271 7.81706 17.8577 8.81145 17.4111 9.92293L17.875 10.1094ZM19.7646 7.29688L20.1182 7.65043C20.913 6.85562 21.7993 6.26458 22.7782 5.87117L22.5918 5.40723L22.4054 4.94329C21.2945 5.38972 20.296 6.05844 19.4111 6.94332L19.7646 7.29688ZM22.5918 5.40723L22.7782 5.87117C23.7657 5.47434 24.7718 5.27734 25.7998 5.27734V4.77734V4.27734C24.6403 4.27734 23.5078 4.50027 22.4054 4.94329L22.5918 5.40723ZM25.7998 4.77734V5.27734C26.6721 5.27734 27.5313 5.41949 28.3794 5.70527L28.5391 5.23145L28.6987 4.75762C27.75 4.43794 26.783 4.27734 25.7998 4.27734V4.77734ZM28.5391 5.23145L28.3635 5.69961C28.9142 5.90614 29.2344 6.05149 29.3707 6.13759L29.6377 5.71484L29.9047 5.2921C29.6699 5.14382 29.2576 4.96691 28.7146 4.76328L28.5391 5.23145ZM29.6377 5.71484L29.3708 6.13767C30.439 6.81185 31.1004 7.79321 31.3588 9.12091L31.8496 9.02539L32.3404 8.92987C32.0324 7.34742 31.2192 6.12174 29.9046 5.29202L29.6377 5.71484ZM31.8496 9.02539L31.3587 9.12013C31.4643 9.66754 31.5107 10.06 31.5107 10.3145H32.0107H32.5107C32.5107 9.96343 32.4498 9.49652 32.3406 8.93065L31.8496 9.02539ZM32.0107 10.3145H31.5107V10.6074H32.0107H32.5107V10.3145H32.0107ZM32.0107 10.6074V10.1074H18.3291V10.6074V11.1074H32.0107V10.6074ZM18.3291 10.6074L17.8349 10.5314C17.7724 10.9378 17.7412 11.3489 17.7412 11.7646H18.2412H18.7412C18.7412 11.3991 18.7686 11.0388 18.8233 10.6835L18.3291 10.6074ZM18.2412 11.7646H17.7412C17.7412 12.9026 17.9868 14.0517 18.468 15.2086L18.9297 15.0166L19.3913 14.8246C18.9546 13.7745 18.7412 12.7556 18.7412 11.7646H18.2412ZM18.9297 15.0166L18.4701 15.2136C18.9659 16.3703 19.6965 17.4325 20.6543 18.4005L21.0098 18.0488L21.3652 17.6972C20.4871 16.8097 19.831 15.8504 19.3893 14.8196L18.9297 15.0166ZM21.0098 18.0488L20.6581 18.4042C21.6261 19.3621 22.6883 20.0927 23.845 20.5885L24.042 20.1289L24.239 19.6693C23.2082 19.2276 22.2489 18.5715 21.3614 17.6934L21.0098 18.0488ZM24.042 20.1289L23.8465 20.5891C25.0047 21.0811 26.1598 21.332 27.3086 21.332V20.832V20.332C26.3089 20.332 25.2864 20.1142 24.2375 19.6687L24.042 20.1289ZM27.3086 20.832V21.332C28.1857 21.332 29.0256 21.1856 29.8252 20.891L29.6523 20.4219L29.4795 19.9527C28.7947 20.205 28.0721 20.332 27.3086 20.332V20.832ZM29.6523 20.4219L29.8302 20.8892C31.0346 20.4309 32.0054 19.6446 32.735 18.545L32.3184 18.2686L31.9017 17.9921C31.2836 18.9238 30.4771 19.573 29.4745 19.9546L29.6523 20.4219ZM32.3184 18.2686L32.0218 18.6711L32.3001 18.8762L32.5967 18.4736L32.8933 18.0711L32.615 17.866L32.3184 18.2686ZM32.5967 18.4736L32.1951 18.1757C31.9881 18.4548 31.7477 18.7273 31.4728 18.993L31.8203 19.3525L32.1678 19.712C32.4789 19.4113 32.7561 19.0979 32.9982 18.7716L32.5967 18.4736ZM31.8203 19.3525L31.4688 18.9969C30.6739 19.7826 29.787 20.3697 28.8067 20.7636L28.9932 21.2275L29.1796 21.6915C30.2892 21.2456 31.287 20.5826 32.1718 19.7082L31.8203 19.3525ZM28.9932 21.2275L28.809 20.7627C27.8319 21.1498 26.825 21.3428 25.7852 21.3428V21.8428V22.3428C26.9523 22.3428 28.0841 22.1256 29.1773 21.6924L28.9932 21.2275ZM29.8867 10.3145L30.386 10.3407L30.4007 10.0624L29.9014 10.0361L29.4021 10.0099L29.3874 10.2882L29.8867 10.3145ZM29.9014 10.0361H30.4014C30.4014 9.27606 30.2645 8.60497 29.958 8.05094L29.5205 8.29297L29.083 8.535C29.2843 8.89893 29.4014 9.38996 29.4014 10.0361H29.9014ZM29.5205 8.29297L29.9602 8.05483C29.6827 7.54254 29.3516 7.11665 28.9595 6.79372L28.6416 7.17969L28.3237 7.56565C28.5957 7.7896 28.8505 8.1059 29.0809 8.53111L29.5205 8.29297ZM28.6416 7.17969L28.9651 6.79843C28.6217 6.50708 28.2881 6.28009 27.9658 6.13684L27.7627 6.59375L27.5596 7.05066C27.7647 7.14178 28.017 7.30542 28.3181 7.56094L28.6416 7.17969ZM27.7627 6.59375L27.9722 6.13977L27.5914 5.96399L27.3818 6.41797L27.1723 6.87195L27.5532 7.04773L27.7627 6.59375ZM27.3818 6.41797L27.5712 5.9552C26.4441 5.49413 25.3253 5.25879 24.2178 5.25879V5.75879V6.25879C25.1806 6.25879 26.1711 6.4629 27.1925 6.88074L27.3818 6.41797ZM24.2178 5.75879V5.25879C22.9809 5.25879 21.8267 5.55858 20.764 6.15831L21.0098 6.59375L21.2555 7.02919C22.1655 6.51564 23.15 6.25879 24.2178 6.25879V5.75879ZM21.0098 6.59375L20.7186 6.18725C19.9496 6.73803 19.2635 7.42566 18.6591 8.24522L19.0615 8.54199L19.4639 8.83876C20.0118 8.09583 20.6246 7.48463 21.3009 7.00025L21.0098 6.59375ZM19.0615 8.54199L18.6274 8.29392C18.2887 8.88668 18.0461 9.52586 17.8989 10.2092L18.3877 10.3145L18.8765 10.4197C19.0027 9.83352 19.2094 9.29106 19.4956 8.79006L19.0615 8.54199ZM18.3877 10.3145V10.8145H29.8867V10.3145V9.81445H18.3877V10.3145ZM39.0273 21.667V22.167L39.2365 21.2128L39.0273 21.667ZM35.248 21.667L35.0389 21.2128L35.248 22.167V21.667ZM36.3613 21.1543L36.5705 21.6085L36.8613 21.4745V21.1543H36.3613ZM36.3613 1.02734H36.8613V0.710928L36.5754 0.575476L36.3613 1.02734ZM35.248 0.5V0L35.034 0.951868L35.248 0.5ZM39.0273 0.5L39.2414 0.951868L39.0273 0V0.5ZM37.9141 1.02734L37.7 0.575476L37.4141 0.710928V1.02734H37.9141ZM37.9141 21.1543H37.4141V21.4745L37.7049 21.6085L37.9141 21.1543ZM39.0273 21.667V21.167H35.248V21.667V22.167H39.0273V21.667ZM35.248 21.667L35.4572 22.1211L36.5705 21.6085L36.3613 21.1543L36.1522 20.7001L35.0389 21.2128L35.248 21.667ZM36.3613 21.1543H36.8613V1.02734H36.3613H35.8613V21.1543H36.3613ZM36.3613 1.02734L36.5754 0.575476L35.4621 0.0481319L35.248 0.5L35.034 0.951868L36.1473 1.47921L36.3613 1.02734ZM35.248 0.5V1H39.0273V0.5V0H35.248V0.5ZM39.0273 0.5L38.8133 0.0481319L37.7 0.575476L37.9141 1.02734L38.1281 1.47921L39.2414 0.951868L39.0273 0.5ZM37.9141 1.02734H37.4141V21.1543H37.9141H38.4141V1.02734H37.9141ZM37.9141 21.1543L37.7049 21.6085L38.8182 22.1211L39.0273 21.667L39.2365 21.2128L38.1232 20.7001L37.9141 21.1543ZM44.5498 21.5791L44.3152 22.0207L44.3351 22.0312L44.3558 22.0399L44.5498 21.5791ZM42.9971 18.4004H42.4971V18.4154L42.498 18.4305L42.9971 18.4004ZM42.9971 5.31934H43.4971V4.81934H42.9971V5.31934ZM41.6641 5.31934H41.1641V5.81934H41.6641V5.31934ZM41.6641 5.02637V4.52637H41.1641V5.02637H41.6641ZM42.9824 4.57227L42.6671 4.18416L42.6613 4.189L42.9824 4.57227ZM44.374 2.47754L43.9012 2.315L43.9007 2.31631L44.374 2.47754ZM44.5498 1.93555H45.0498L44.0595 1.83749L44.5498 1.93555ZM44.5498 5.02637H44.0498V5.52637H44.5498V5.02637ZM47.2744 5.02637H47.7744V4.52637H47.2744V5.02637ZM47.2744 5.31934V5.81934H47.7744V5.31934H47.2744ZM44.5498 5.31934V4.81934H44.0498V5.31934H44.5498ZM44.9893 20.9492L44.5892 21.2492L44.5921 21.2529L44.9893 20.9492ZM45.7949 21.1689L45.893 21.6592L45.994 21.639L46.0788 21.5806L45.7949 21.1689ZM46.5273 20.2461L46.7509 19.7989L46.2995 19.5732L46.0781 20.0267L46.5273 20.2461ZM46.791 20.3779L47.2362 20.6055L47.4658 20.1563L47.0146 19.9307L46.791 20.3779ZM45.1211 21.6963V21.1963C44.9945 21.1963 44.8699 21.1714 44.7438 21.1183L44.5498 21.5791L44.3558 22.0399C44.6008 22.1431 44.8571 22.1963 45.1211 22.1963V21.6963ZM44.5498 21.5791L44.7844 21.1375C44.0712 20.7587 43.5893 19.9158 43.4962 18.3703L42.9971 18.4004L42.498 18.4305C42.6002 20.1271 43.1534 21.4034 44.3152 22.0207L44.5498 21.5791ZM42.9971 18.4004H43.4971V5.31934H42.9971H42.4971V18.4004H42.9971ZM42.9971 5.31934V4.81934H41.6641V5.31934V5.81934H42.9971V5.31934ZM41.6641 5.31934H42.1641V5.02637H41.6641H41.1641V5.31934H41.6641ZM41.6641 5.02637V5.52637C42.2867 5.52637 42.8432 5.34123 43.3035 4.95553L42.9824 4.57227L42.6613 4.189C42.399 4.40877 42.0765 4.52637 41.6641 4.52637V5.02637ZM42.9824 4.57227L43.2977 4.96032C44.0071 4.38399 44.5194 3.60139 44.8473 2.63877L44.374 2.47754L43.9007 2.31631C43.6232 3.13104 43.2078 3.74492 42.6671 4.18421L42.9824 4.57227ZM44.374 2.47754L44.8469 2.64008C44.9009 2.48276 44.9435 2.35632 44.9741 2.26192C45.0004 2.18106 45.0283 2.09277 45.0401 2.03361L44.5498 1.93555L44.0595 1.83749C44.0621 1.82477 44.0627 1.82551 44.0541 1.85415C44.0472 1.87743 44.037 1.91014 44.0229 1.95341C43.9949 2.03968 43.9545 2.15981 43.9012 2.315L44.374 2.47754ZM44.5498 1.93555H44.0498V5.02637H44.5498H45.0498V1.93555H44.5498ZM44.5498 5.02637V5.52637H47.2744V5.02637V4.52637H44.5498V5.02637ZM47.2744 5.02637H46.7744V5.31934H47.2744H47.7744V5.02637H47.2744ZM47.2744 5.31934V4.81934H44.5498V5.31934V5.81934H47.2744V5.31934ZM44.5498 5.31934H44.0498V19.2793H44.5498H45.0498V5.31934H44.5498ZM44.5498 19.2793H44.0498C44.0498 20.0605 44.2069 20.7393 44.5893 21.2492L44.9893 20.9492L45.3893 20.6492C45.1857 20.3778 45.0498 19.9434 45.0498 19.2793H44.5498ZM44.9893 20.9492L44.5921 21.2529C44.8215 21.553 45.1497 21.6982 45.5166 21.6982V21.1982V20.6982C45.4343 20.6982 45.4109 20.6775 45.3864 20.6455L44.9893 20.9492ZM45.5166 21.1982V21.6982C45.6414 21.6982 45.7672 21.6844 45.893 21.6592L45.7949 21.1689L45.6969 20.6787C45.6273 20.6926 45.5676 20.6982 45.5166 20.6982V21.1982ZM45.7949 21.1689L46.0788 21.5806C46.4536 21.3221 46.7468 20.9361 46.9766 20.4655L46.5273 20.2461L46.0781 20.0267C45.8977 20.3959 45.7027 20.6252 45.5111 20.7573L45.7949 21.1689ZM46.5273 20.2461L46.3037 20.6933L46.5674 20.8251L46.791 20.3779L47.0146 19.9307L46.7509 19.7989L46.5273 20.2461ZM46.791 20.3779L46.3458 20.1504C45.9356 20.9528 45.5135 21.1963 45.1211 21.1963V21.6963V22.1963C46.0568 22.1963 46.7479 21.5608 47.2362 20.6055L46.791 20.3779ZM53.7051 21.667V22.167L53.9191 21.2151L53.7051 21.667ZM49.9258 21.667L49.7117 21.2151L49.9258 22.167V21.667ZM51.0391 21.1396L51.2531 21.5915L51.5391 21.4561V21.1396H51.0391ZM51.0391 5.55371H51.5391V5.2373L51.2531 5.10184L51.0391 5.55371ZM49.9258 5.02637V4.52637L49.7117 5.47824L49.9258 5.02637ZM53.7051 5.02637L53.9191 5.47824L53.7051 4.52637V5.02637ZM52.5918 5.55371L52.3778 5.10184L52.0918 5.2373V5.55371H52.5918ZM52.5918 12.292H52.0918L53.0841 12.3795L52.5918 12.292ZM53.3389 9.62598L52.8737 9.44253L52.8715 9.44819L53.3389 9.62598ZM55.5361 6.38867L55.218 6.00288L55.2144 6.0059L55.5361 6.38867ZM60.5166 5.1582L61.0114 5.23003L61.0709 4.82044L60.6796 4.68552L60.5166 5.1582ZM60.2529 6.97461L59.9857 7.39724L60.6371 7.80898L60.7477 7.04644L60.2529 6.97461ZM58.9785 6.16895L59.2457 5.74632L59.1731 5.70042L59.0893 5.68138L58.9785 6.16895ZM58.6562 6.0957L58.7671 5.60814L58.7542 5.60521L58.7412 5.60297L58.6562 6.0957ZM56.7812 6.11035L56.8609 6.60413L56.8734 6.60179L56.7812 6.11035ZM55.8877 6.49121L55.601 6.0816L55.5929 6.08721L55.5852 6.09313L55.8877 6.49121ZM55.1992 7.12109L54.8305 6.78312L54.8223 6.79258L55.1992 7.12109ZM53.2363 10.8418L52.7535 10.7119L52.7527 10.715L53.2363 10.8418ZM52.5918 14.7236L52.0924 14.6987L52.0918 14.7111V14.7236H52.5918ZM52.5918 21.1396H52.0918V21.4561L52.3778 21.5915L52.5918 21.1396ZM53.7051 21.667V21.167H49.9258V21.667V22.167H53.7051V21.667ZM49.9258 21.667L50.1398 22.1189L51.2531 21.5915L51.0391 21.1396L50.825 20.6878L49.7117 21.2151L49.9258 21.667ZM51.0391 21.1396H51.5391V5.55371H51.0391H50.5391V21.1396H51.0391ZM51.0391 5.55371L51.2531 5.10184L50.1398 4.5745L49.9258 5.02637L49.7117 5.47824L50.825 6.00558L51.0391 5.55371ZM49.9258 5.02637V5.52637H53.7051V5.02637V4.52637H49.9258V5.02637ZM53.7051 5.02637L53.491 4.5745L52.3778 5.10184L52.5918 5.55371L52.8058 6.00558L53.9191 5.47824L53.7051 5.02637ZM52.5918 5.55371H52.0918V12.292H52.5918H53.0918V5.55371H52.5918ZM52.5918 12.292L53.0841 12.3795C53.2345 11.5337 53.4747 10.6752 53.8062 9.80376L53.3389 9.62598L52.8715 9.44819C52.5195 10.3737 52.2616 11.2925 52.0995 12.2045L52.5918 12.292ZM53.3389 9.62598L53.804 9.80941C54.3277 8.48152 55.0172 7.47795 55.8578 6.77144L55.5361 6.38867L55.2144 6.0059C54.2192 6.84236 53.4438 7.997 52.8737 9.44254L53.3389 9.62598ZM55.5361 6.38867L55.8542 6.77444C56.8691 5.93759 58.1012 5.51172 59.5791 5.51172V5.01172V4.51172C57.893 4.51172 56.4297 5.00382 55.218 6.0029L55.5361 6.38867ZM59.5791 5.01172V5.51172C59.8731 5.51172 60.1297 5.55367 60.3536 5.63089L60.5166 5.1582L60.6796 4.68552C60.3371 4.56743 59.9687 4.51172 59.5791 4.51172V5.01172ZM60.5166 5.1582L60.0218 5.08638L59.7581 6.90278L60.2529 6.97461L60.7477 7.04644L61.0114 5.23003L60.5166 5.1582ZM60.2529 6.97461L60.5201 6.55198L59.2457 5.74632L58.9785 6.16895L58.7113 6.59157L59.9857 7.39724L60.2529 6.97461ZM58.9785 6.16895L59.0893 5.68138L58.7671 5.60814L58.6562 6.0957L58.5454 6.58327L58.8677 6.65651L58.9785 6.16895ZM58.6562 6.0957L58.7412 5.60297C58.4214 5.54784 58.0495 5.52246 57.6309 5.52246V6.02246V6.52246C58.013 6.52246 58.3247 6.54591 58.5713 6.58843L58.6562 6.0957ZM57.6309 6.02246V5.52246C57.3395 5.52246 57.0248 5.55598 56.6891 5.61892L56.7812 6.11035L56.8734 6.60179C57.1627 6.54753 57.4144 6.52246 57.6309 6.52246V6.02246ZM56.7812 6.11035L56.7016 5.61673C56.313 5.67942 55.9455 5.84041 55.601 6.0816L55.8877 6.49121L56.1744 6.90083C56.4158 6.73186 56.644 6.63894 56.8609 6.60397L56.7812 6.11035ZM55.8877 6.49121L55.5852 6.09313C55.3164 6.29739 55.0649 6.52766 54.8306 6.78323L55.1992 7.12109L55.5678 7.45896C55.7632 7.24578 55.9707 7.05613 56.1902 6.88929L55.8877 6.49121ZM55.1992 7.12109L54.8223 6.79258C53.8427 7.91656 53.1533 9.22542 52.7535 10.7119L53.2363 10.8418L53.7192 10.9717C54.0811 9.62615 54.7003 8.45453 55.5761 7.44961L55.1992 7.12109ZM53.2363 10.8418L52.7527 10.715C52.3749 12.1566 52.1531 13.4852 52.0924 14.6987L52.5918 14.7236L53.0912 14.7486C53.1477 13.6183 53.3556 12.3591 53.72 10.9686L53.2363 10.8418ZM52.5918 14.7236H52.0918V21.1396H52.5918H53.0918V14.7236H52.5918ZM52.5918 21.1396L52.3778 21.5915L53.491 22.1189L53.7051 21.667L53.9191 21.2151L52.8058 20.6878L52.5918 21.1396ZM66.9619 21.667V22.167L67.1737 21.2141L66.9619 21.667ZM63.168 21.667L62.9539 21.2151L63.168 22.167V21.667ZM64.2812 21.1396L64.4953 21.5915L64.7812 21.4561V21.1396H64.2812ZM64.2812 5.53906H64.7812V5.21885L64.4904 5.08491L64.2812 5.53906ZM63.168 5.02637V4.52637L62.9588 5.48052L63.168 5.02637ZM66.9619 5.02637L67.1688 5.48155L66.9619 4.52637V5.02637ZM65.834 5.53906L65.6271 5.08388L65.334 5.21711V5.53906H65.834ZM65.834 21.1396H65.334V21.4578L65.6222 21.5926L65.834 21.1396ZM64.2373 3.38574L63.8837 3.73938L63.8913 3.74674L64.2373 3.38574ZM64.2373 1.74512L63.8913 1.38404L63.8838 1.39156L64.2373 1.74512ZM65.8779 1.74512L65.5243 2.09875L65.532 2.10611L65.8779 1.74512ZM65.8779 3.38574L65.5319 3.02467L65.5244 3.03219L65.8779 3.38574ZM66.9619 21.667V21.167H63.168V21.667V22.167H66.9619V21.667ZM63.168 21.667L63.382 22.1189L64.4953 21.5915L64.2812 21.1396L64.0672 20.6878L62.9539 21.2151L63.168 21.667ZM64.2812 21.1396H64.7812V5.53906H64.2812H63.7812V21.1396H64.2812ZM64.2812 5.53906L64.4904 5.08491L63.3771 4.57221L63.168 5.02637L62.9588 5.48052L64.0721 5.99322L64.2812 5.53906ZM63.168 5.02637V5.52637H66.9619V5.02637V4.52637H63.168V5.02637ZM66.9619 5.02637L66.755 4.57118L65.6271 5.08388L65.834 5.53906L66.0409 5.99425L67.1688 5.48155L66.9619 5.02637ZM65.834 5.53906H65.334V21.1396H65.834H66.334V5.53906H65.834ZM65.834 21.1396L65.6222 21.5926L66.7502 22.1199L66.9619 21.667L67.1737 21.2141L66.0457 20.6867L65.834 21.1396ZM65.0576 3.72266V3.22266C64.8795 3.22266 64.7286 3.16399 64.5833 3.02475L64.2373 3.38574L63.8913 3.74674C64.2148 4.05671 64.6107 4.22266 65.0576 4.22266V3.72266ZM64.2373 3.38574L64.5909 3.03219C64.4615 2.90287 64.4004 2.75725 64.4004 2.56543H63.9004H63.4004C63.4004 3.01814 63.5639 3.4194 63.8838 3.7393L64.2373 3.38574ZM63.9004 2.56543H64.4004C64.4004 2.37361 64.4615 2.22799 64.5909 2.09867L64.2373 1.74512L63.8838 1.39156C63.5639 1.71146 63.4004 2.11272 63.4004 2.56543H63.9004ZM64.2373 1.74512L64.5833 2.10611C64.7286 1.96687 64.8795 1.9082 65.0576 1.9082V1.4082V0.908203C64.6107 0.908203 64.2148 1.07415 63.8913 1.38412L64.2373 1.74512ZM65.0576 1.4082V1.9082C65.2494 1.9082 65.3951 1.96935 65.5244 2.09867L65.8779 1.74512L66.2315 1.39156C65.9116 1.07167 65.5103 0.908203 65.0576 0.908203V1.4082ZM65.8779 1.74512L65.532 2.10611C65.6688 2.2372 65.7295 2.38059 65.7295 2.56543H66.2295H66.7295C66.7295 2.10574 66.5558 1.70226 66.2239 1.38412L65.8779 1.74512ZM66.2295 2.56543H65.7295C65.7295 2.75027 65.6688 2.89366 65.532 3.02475L65.8779 3.38574L66.2239 3.74674C66.5558 3.4286 66.7295 3.02512 66.7295 2.56543H66.2295ZM65.8779 3.38574L65.5244 3.03219C65.3951 3.16151 65.2494 3.22266 65.0576 3.22266V3.72266V4.22266C65.5103 4.22266 65.9116 4.05919 66.2315 3.7393L65.8779 3.38574ZM81.5957 21.667V22.167L81.7762 21.2007L81.5957 21.667ZM77.0986 21.667L76.9198 21.2001L77.0986 22.167V21.667ZM78.4756 21.1396L78.6544 21.6066L79.1816 21.4047L78.9175 20.9057L78.4756 21.1396ZM74.7842 14.167L75.2261 13.933L74.7833 13.0967L74.3419 13.9338L74.7842 14.167ZM71.1074 21.1396L70.6651 20.9064L70.4032 21.4032L70.9269 21.6059L71.1074 21.1396ZM72.4697 21.667V22.167L72.6502 21.2007L72.4697 21.667ZM69.4082 21.667L69.2277 21.2007L69.4082 22.167V21.667ZM70.7705 21.1396L70.951 21.6059L71.1253 21.5384L71.2126 21.3731L70.7705 21.1396ZM74.623 13.8447L75.0652 14.0782L75.1885 13.8447L75.0651 13.6112L74.623 13.8447ZM70.2432 5.55371L70.6853 5.32016L70.5967 5.15253L70.4193 5.08575L70.2432 5.55371ZM68.8809 5.04102V4.54102L68.7048 5.50897L68.8809 5.04102ZM73.3633 5.04102L73.5394 5.50897L73.3633 4.54102V5.04102ZM72.001 5.55371L71.8249 5.08575L71.2941 5.28549L71.5588 5.78703L72.001 5.55371ZM75.502 12.1895L75.0597 12.4228L75.502 13.261L75.9442 12.4228L75.502 12.1895ZM79.0029 5.55371L79.4452 5.78703L79.7098 5.28549L79.179 5.08575L79.0029 5.55371ZM77.6406 5.04102V4.54102L77.4645 5.50897L77.6406 5.04102ZM80.6875 5.04102L80.8636 5.50897L80.6875 4.54102V5.04102ZM79.3252 5.55371L79.1491 5.08575L78.9715 5.1526L78.8829 5.32045L79.3252 5.55371ZM75.6631 12.4971L75.2208 12.2638L75.0976 12.4974L75.2211 12.7308L75.6631 12.4971ZM80.2334 21.1396L79.7914 21.3734L79.8787 21.5385L80.0529 21.6059L80.2334 21.1396ZM81.5957 21.667V21.167H77.0986V21.667V22.167H81.5957V21.667ZM77.0986 21.667L77.2775 22.1339L78.6544 21.6066L78.4756 21.1396L78.2968 20.6727L76.9198 21.2001L77.0986 21.667ZM78.4756 21.1396L78.9175 20.9057L75.2261 13.933L74.7842 14.167L74.3423 14.4009L78.0337 21.3736L78.4756 21.1396ZM74.7842 14.167L74.3419 13.9338L70.6651 20.9064L71.1074 21.1396L71.5497 21.3729L75.2265 14.4002L74.7842 14.167ZM71.1074 21.1396L70.9269 21.6059L72.2892 22.1333L72.4697 21.667L72.6502 21.2007L71.2879 20.6734L71.1074 21.1396ZM72.4697 21.667V21.167H69.4082V21.667V22.167H72.4697V21.667ZM69.4082 21.667L69.5887 22.1333L70.951 21.6059L70.7705 21.1396L70.59 20.6734L69.2277 21.2007L69.4082 21.667ZM70.7705 21.1396L71.2126 21.3731L75.0652 14.0782L74.623 13.8447L74.1809 13.6112L70.3284 20.9062L70.7705 21.1396ZM74.623 13.8447L75.0651 13.6112L70.6853 5.32016L70.2432 5.55371L69.8011 5.78726L74.1809 14.0783L74.623 13.8447ZM70.2432 5.55371L70.4193 5.08575L69.057 4.57306L68.8809 5.04102L68.7048 5.50897L70.0671 6.02167L70.2432 5.55371ZM68.8809 5.04102V5.54102H73.3633V5.04102V4.54102H68.8809V5.04102ZM73.3633 5.04102L73.1872 4.57306L71.8249 5.08575L72.001 5.55371L72.1771 6.02167L73.5394 5.50897L73.3633 5.04102ZM72.001 5.55371L71.5588 5.78703L75.0597 12.4228L75.502 12.1895L75.9442 11.9561L72.4432 5.32039L72.001 5.55371ZM75.502 12.1895L75.9442 12.4228L79.4452 5.78703L79.0029 5.55371L78.5607 5.32039L75.0597 11.9561L75.502 12.1895ZM79.0029 5.55371L79.179 5.08575L77.8167 4.57306L77.6406 5.04102L77.4645 5.50897L78.8268 6.02167L79.0029 5.55371ZM77.6406 5.04102V5.54102H80.6875V5.04102V4.54102H77.6406V5.04102ZM80.6875 5.04102L80.5114 4.57306L79.1491 5.08575L79.3252 5.55371L79.5013 6.02167L80.8636 5.50897L80.6875 5.04102ZM79.3252 5.55371L78.8829 5.32045L75.2208 12.2638L75.6631 12.4971L76.1053 12.7303L79.7675 5.78697L79.3252 5.55371ZM75.6631 12.4971L75.2211 12.7308L79.7914 21.3734L80.2334 21.1396L80.6754 20.9059L76.1051 12.2633L75.6631 12.4971ZM80.2334 21.1396L80.0529 21.6059L81.4152 22.1333L81.5957 21.667L81.7762 21.2007L80.4139 20.6734L80.2334 21.1396Z" fill="white" mask="url(#path-1-outside-1_397_1353)"/>
</svg>
