<svg width="47" height="41" viewBox="0 0 47 41" fill="none" xmlns="http://www.w3.org/2000/svg">
<path d="M31.9229 1L9.24219 23.5264L8.99902 23.7686L8.95508 24.1084C8.83808 25.024 9.16745 25.7453 9.74512 26.1924C10.2518 26.5845 10.8522 26.6933 11.251 26.6934H11.6592L11.9502 26.4082L29.5879 9.15332C29.5977 9.14643 29.6093 9.13872 29.6221 9.12988C29.682 9.08831 29.7735 9.02543 29.8945 8.94727C30.1372 8.79056 30.4959 8.57167 30.9473 8.33008C31.8541 7.84475 33.1162 7.2802 34.5557 6.94141C37.4024 6.27146 40.8846 6.48067 43.833 9.94141C45.9239 12.3959 46.1876 15.1349 45.9082 17.3213C45.7683 18.4161 45.4926 19.3569 45.252 20.0234C45.132 20.3557 45.0219 20.6174 44.9434 20.792C44.9204 20.8431 44.8987 20.8861 44.8818 20.9219L26.4736 40H14.835L37.8398 17.6641L38.0527 17.457L38.1191 17.168C38.222 16.7151 38.2288 16.2683 38.0967 15.8535C37.9608 15.4268 37.7001 15.1065 37.3916 14.8877C36.8214 14.4834 36.139 14.4508 35.7314 14.4951L35.3906 14.5322L35.1436 14.7705L16.7783 32.5527C16.7283 32.5827 16.6556 32.6268 16.5605 32.6797C16.3536 32.7948 16.0448 32.9564 15.6533 33.1328C14.8675 33.4868 13.7619 33.894 12.4766 34.1152C9.92856 34.5538 6.69797 34.2666 3.75781 31.3604C1.26747 28.8986 0.837707 25.9957 1.0459 23.6406C1.15036 22.4592 1.41608 21.4305 1.65625 20.6973C1.77587 20.3321 1.88805 20.0435 1.96875 19.8496C1.99072 19.7968 2.01062 19.7511 2.02734 19.7129L20.9756 1H31.9229Z" stroke="#151515" stroke-width="2"/>
</svg>
