<svg width="21" height="27" viewBox="0 0 21 27" fill="none" xmlns="http://www.w3.org/2000/svg">
<path d="M13.0947 8.76689C13.0947 8.76689 14.0523 8.31755 14.0947 7.76689C14.1282 7.33156 13.5947 6.76689 13.5947 6.76689H12.5947M13.0947 8.76689H6.5947M13.0947 8.76689C18.8946 12.3667 19.8447 17.9336 19.5947 20.2671C20.0947 26.7671 1.59467 27.7671 0.594672 20.2671C-0.205328 14.2671 4.26136 10.1003 6.5947 8.76689M6.5947 8.76689C6.5947 8.76689 5.5947 8.31918 5.5947 7.76689C5.5947 7.21461 6.5947 6.76689 6.5947 6.76689H7.0947M7.0947 6.76689L5.5947 3.76689C5.42803 3.10023 5.5947 1.86689 7.5947 2.26689M7.0947 6.76689H12.5947M7.5947 2.26689C8.42802 0.933554 10.4946 -0.93312 12.0947 2.26689M7.5947 2.26689L8.59467 4.26709M12.0947 2.26689C12.928 2.10036 14.4947 2.26725 14.0947 4.26709L12.5947 6.76689M12.0947 2.26689L11.5947 4.26709" stroke="white"/>
</svg>
