<svg width="30" height="31" viewBox="0 0 30 31" fill="none" xmlns="http://www.w3.org/2000/svg">
<path d="M8.93556 27.4964H20.9223M8.93556 27.4964C9.12889 27.0682 9.35393 26.5363 9.5929 25.9285M8.93556 27.4964H7.35022V30.5H22.469V27.4964H20.9223M20.9223 27.4964C20.6088 27.0584 20.325 26.5262 20.0688 25.9285M10.3198 23.9466H19.3747M10.3198 23.9466C10.0753 24.6627 9.82739 25.3322 9.5929 25.9285M10.3198 23.9466C10.4448 23.5806 10.5688 23.2023 10.6898 22.8154M19.3747 23.9466C19.5795 24.6544 19.8101 25.3249 20.0688 25.9285M19.3747 23.9466C19.2682 23.5782 19.1686 23.1998 19.0757 22.8154M12.0289 13.0243H10.7916L10.1342 13.9995L10.7916 15.0137H12.0289C12.1528 17.3162 11.4898 20.2559 10.6898 22.8154M12.0289 13.0243H17.9836M12.0289 13.0243C11.9255 12.6186 11.7284 12.0011 11.4567 11.3859M17.9836 13.0243H19.3756L19.917 13.9995L18.873 15.0137H17.9836C18.0694 16.8219 18.3907 19.9799 19.0757 22.8154M17.9836 13.0243C18.1194 12.5588 18.4089 11.9661 18.7347 11.3859M11.4567 11.3859C11.1189 10.6209 10.6658 9.8595 10.1342 9.51355V8.16776M11.4567 11.3859H18.7347M18.7347 11.3859C19.1515 10.6438 19.6276 9.92222 19.917 9.51355V8.16776M9.5929 25.9285L8.43289 25.2339L6.73155 26.8332C5.91954 26.4041 4.1022 25.1247 3.32886 23.4395L4.99154 21.7231C4.43731 20.7999 3.32886 18.7039 3.32886 17.7053H0.89284C0.596394 16.457 0.181369 13.7732 0.89284 13.0243H3.32886C3.30308 12.1531 3.59953 10.0519 4.99154 8.61636L3.32886 6.82197C3.89597 5.85977 5.37047 3.84174 6.73155 3.46726L8.43289 5.33966C9.23202 4.71553 11.2247 3.46726 12.8023 3.46726V0.775693C14.0396 0.567648 16.6613 0.276387 17.249 0.775693V3.46726C18.3188 3.59729 20.6594 4.15381 21.4637 5.33966L23.281 3.46726C24.093 3.98737 25.8485 5.38647 26.3744 6.82197L24.7504 8.61636C25.4464 9.42253 26.7456 11.4328 26.3744 13.0243H29.1584C29.4162 13.9605 29.7771 16.2074 29.1584 17.7053H26.3744C26.3228 18.4724 25.9258 20.35 24.7504 21.7231L26.6837 23.4395L23.281 26.8332L21.4637 25.2339L20.0688 25.9285M10.1342 8.16776V6.82197H12.0289V8.61636H14.0396V6.82197H15.8569V8.61636H17.9836V6.82197H19.917V8.16776M10.1342 8.16776C10.1342 8.16776 6.10826 10.2157 6.30623 15.6378C6.48854 20.6309 10.6898 22.8154 10.6898 22.8154M19.0757 22.8154C19.0757 22.8154 23.8997 20.5139 23.8997 15.6378C23.8997 10.3717 19.917 8.16776 19.917 8.16776" stroke="black"/>
</svg>
