<svg width="26" height="21" viewBox="0 0 26 21" fill="none" xmlns="http://www.w3.org/2000/svg">
<path d="M3.02294 6.23394H11.2798M3.43578 8.75688H13.9862M3.43578 11.4174H8.02294M3.43578 13.7569H13.4817M17.2431 9.48308C17.7918 9.819 18.4343 10.0204 19.1239 10.0413C19.799 10.0618 20.4422 9.90007 21.0046 9.60178M17.2431 9.48308C16.1493 8.81339 15.4288 7.60897 15.4541 6.23394C15.4914 4.20756 17.098 2.62561 19.1239 2.56422C21.2139 2.50088 22.9845 4.14327 23.0229 6.23394C23.0497 7.6865 22.2142 8.96017 21.0046 9.60178M17.2431 9.48308L15.9128 15.0872L19.445 12.7477L23.0229 15.0872L21.0046 9.60178M19.1239 4.81193C20.0378 4.69975 20.9373 5.31562 21.0046 6.23394C21.076 7.20875 20.0938 8.00582 19.1239 7.88532C18.2676 7.77894 17.5916 7.09439 17.656 6.23394C17.7155 5.43804 18.3317 4.90916 19.1239 4.81193ZM3.5 20.5H22.5C24.1569 20.5 25.5 19.1569 25.5 17.5V3.5C25.5 1.84315 24.1569 0.5 22.5 0.5H3.5C1.84315 0.5 0.5 1.84315 0.5 3.5V17.5C0.5 19.1569 1.84315 20.5 3.5 20.5Z" stroke="black"/>
</svg>
