<svg width="23" height="19" viewBox="0 0 23 19" fill="none" xmlns="http://www.w3.org/2000/svg">
<path d="M2.72018 5.66055H9.98624M3.08349 7.93119H12.3679M3.08349 10.3257H7.12018M3.08349 12.4312H11.9239M15.2339 8.58477C15.7168 8.8871 16.2822 9.06834 16.889 9.08716C17.4831 9.10558 18.0492 8.96006 18.544 8.6916M15.2339 8.58477C14.2714 7.98205 13.6374 6.89808 13.6596 5.66055C13.6925 3.8368 15.1063 2.41305 16.889 2.3578C18.7283 2.3008 20.2863 3.77894 20.3202 5.66055C20.3437 6.96785 19.6085 8.11415 18.544 8.6916M15.2339 8.58477L14.0633 13.6284L17.1716 11.5229L20.3202 13.6284L18.544 8.6916M16.889 4.38073C17.6932 4.27977 18.4848 4.83406 18.544 5.66055C18.6069 6.53787 17.7426 7.25524 16.889 7.14679C16.1355 7.05105 15.5406 6.43495 15.5972 5.66055C15.6496 4.94424 16.1919 4.46825 16.889 4.38073ZM3.5 18.5H19.5C21.1569 18.5 22.5 17.1569 22.5 15.5V3.5C22.5 1.84315 21.1569 0.5 19.5 0.5H3.5C1.84315 0.5 0.5 1.84315 0.5 3.5V15.5C0.5 17.1569 1.84315 18.5 3.5 18.5Z" stroke="white"/>
</svg>
