<svg width="60" height="59" viewBox="0 0 60 59" fill="none" xmlns="http://www.w3.org/2000/svg">
<path d="M29.7501 8.25001C41.7687 8.11519 51.8359 17.2378 52.2501 29.25M29.7501 8.25001C17.8735 8.38324 8.15966 17.3797 7.75013 29.25M29.7501 8.25001V0.75M52.2501 29.25C52.6784 41.669 42.1757 51.8896 29.7501 51.75M52.2501 29.25H59.25M29.7501 51.75C17.4618 51.6119 7.3264 41.5318 7.75013 29.25M29.7501 51.75V58.25M7.75013 29.25H0.75M29.7501 23.75V34.75M24.25 29.25H35.25M36.75 17.5934C34.6666 16.4552 32.2767 15.7928 29.7501 15.75C21.6039 15.6119 14.6074 22.1039 14.7501 30.25C14.8059 33.4353 15.922 36.3222 17.75 38.636M43.0047 24.25C43.8379 26.0724 44.2878 28.1018 44.2501 30.25C44.1121 38.1201 37.6203 44.1168 29.7501 44.25C27.0465 44.2958 24.4755 43.6287 22.25 42.4169" stroke="black" stroke-width="1.5" stroke-linecap="round"/>
</svg>
