<svg width="51" height="59" viewBox="0 0 51 59" fill="none" xmlns="http://www.w3.org/2000/svg">
<path d="M34.25 38.25C34.25 38.25 42.3105 33.2499 41.75 23.75C41.2286 14.9116 33.6038 8.24988 24.75 8.25C17.25 8.2501 9.81827 15.6225 9.25017 23.75C8.58616 33.2499 17.25 38.25 17.25 38.25C18.75 39.75 19.15 41.35 18.75 43.75H32.75C32.75 43.75 35.25 43.75 35.25 46.25C35.25 48.75 32.75 48.75 32.75 48.75H20.75C20.75 48.75 17.9723 48.75 18.25 51.25C18.4723 53.25 20.75 53.25 20.75 53.25H30.75C30.75 53.25 32.75 53.8521 32.75 55.75C32.75 57.6479 30.75 58.25 30.75 58.25H21.25M25.25 0.75V6.25M42.75 7.25L38.25 11.25M43.75 24.75H49.75M0.75 24.75H6.75M7.75 7.25L12.25 12.25" stroke="black" stroke-width="1.5" stroke-linecap="round"/>
</svg>
