<svg width="22" height="21" viewBox="0 0 22 21" fill="none" xmlns="http://www.w3.org/2000/svg">
<path d="M3.52337 14.753V1.79573C3.52337 1.36382 3.95528 0.5 5.68292 0.5C7.41056 0.5 15.3289 0.5 19.0721 0.5M3.52337 14.753H12.5935V17.7764C12.5935 17.7764 13.2486 19.7144 15.1849 19.504M3.52337 14.753H0.5V17.3445C0.5 18.0643 0.93191 19.504 2.65955 19.504H15.1849M19.0721 0.5C19.792 0.5 21.2317 1.01829 21.2317 3.09146C21.2317 5.16463 21.2317 8.27438 21.2317 9.57011H17.3445M19.0721 0.5C17.3445 0.845528 17.2005 2.37161 17.3445 3.09146V9.57011M17.3445 9.57011V16.9126C17.3445 16.9126 17.1213 19.2937 15.1849 19.504M6.11483 4.8191H10.8658M5.68292 8.27438H15.1849M6.11483 11.7297H15.1849" stroke="white" stroke-linecap="round"/>
</svg>
