<svg width="24" height="29" viewBox="0 0 24 29" fill="none" xmlns="http://www.w3.org/2000/svg">
<path d="M16.2245 18.7609C16.2245 18.7609 20.008 16.326 19.7449 11.7C19.5002 7.39607 15.9212 4.15211 11.7653 4.15217C8.2449 4.15222 4.75653 7.74224 4.48988 11.7C4.1782 16.326 8.24491 18.7609 8.24491 18.7609C8.949 19.4913 9.13675 20.2704 8.949 21.4391H15.5204C15.5204 21.4391 16.6939 21.4391 16.6939 22.6565C16.6939 23.8739 15.5204 23.8739 15.5204 23.8739H9.88777C9.88777 23.8739 8.58392 23.8739 8.7143 25.0913C8.81861 26.0652 9.88777 26.0652 9.88777 26.0652H14.5816C14.5816 26.0652 15.5204 26.3584 15.5204 27.2826C15.5204 28.2068 14.5816 28.5 14.5816 28.5H10.1225M12 0.5V3.17826M20.2143 3.66522L18.102 5.61304M20.6837 12.187H23.5M0.5 12.187H3.31633M3.78571 3.66522L5.89796 6.1" stroke="black" stroke-linecap="round"/>
</svg>
