<svg width="55" height="60" viewBox="0 0 55 60" fill="none" xmlns="http://www.w3.org/2000/svg">
<path d="M17.2538 32.7852V15.2852M17.2538 32.7852H10.2539M17.2538 32.7852C17.2538 32.7852 18.392 33.3981 20.2539 34.4006M17.2538 15.2852H8.25375C8.25375 15.2852 0.555836 17.2852 0.753752 24.2852C0.951668 31.2852 8.25375 32.7852 8.25375 32.7852H10.2539M17.2538 15.2852C17.2538 15.2852 33.1001 6.44776 43.2537 0.785156M43.2537 0.785156C50.2537 2.78516 53.9189 14.2348 53.7537 24.2852C53.5944 33.9803 48.7537 46.7852 43.2537 46.7852M43.2537 0.785156C37.2537 2.78516 33.0951 14.3127 33.2537 24.2852C33.4067 33.8995 35.7537 42.7467 43.2537 46.7852M43.2537 46.7852C35.8214 42.7831 25.339 37.1387 20.2539 34.4006M38.2539 15.2852C38.2539 15.2852 48.2539 15.2852 48.2539 24.2852C48.2539 31.7852 38.2539 32.7852 38.2539 32.7852M10.2539 32.7852V52.7852C10.2539 52.7852 10.2539 58.2852 14.7539 58.2852C20.2539 58.2852 20.2539 52.7852 20.2539 52.7852V34.4006" stroke="black" stroke-width="1.5" stroke-linecap="round"/>
</svg>
