<svg width="55" height="60" viewBox="0 0 55 60" fill="none" xmlns="http://www.w3.org/2000/svg">
<path d="M8.05794 46.9678C8.34898 45.1972 8.84545 43.1606 9.57631 40.9678M12.0579 53.4678C53.6579 61.8678 56.3913 26.9678 52.5579 8.46777C39.24 9.15961 29.4932 14.1767 22.5576 20.6328M12.0579 53.4678C18.8913 48.6344 33.2579 37.0678 36.0579 29.4678M12.0579 53.4678L1.55794 58.9678M9.57631 40.9678C2.91577 35.3011 -6.40899 19.3678 9.57631 0.967773C13.9034 3.57778 22.5576 11.1648 22.5576 20.6328M9.57631 40.9678C10.5666 37.9965 11.9873 34.7386 13.9105 31.4678M22.5576 20.6328C18.9505 23.9905 16.1037 27.7375 13.9105 31.4678M9.57631 13.4678C11.6385 18.3184 15.3925 28.7093 13.9105 31.4678" stroke="black" stroke-width="1.5" stroke-linecap="round"/>
</svg>
